<svg width="818" height="556" viewBox="0 0 818 556" fill="none" xmlns="http://www.w3.org/2000/svg">
<g clip-path="url(#clip0)">
<path opacity="0.1" d="M811.775 461.118C807.856 471.877 802.341 481.296 795.612 488.722C794.657 489.812 793.68 490.862 792.689 491.892C791.354 493.225 789.986 494.536 788.585 495.822C777.7 505.654 764.953 512.375 752.508 517.275C749.117 518.609 745.713 519.862 742.298 521.036C739.417 522.029 736.533 522.956 733.648 523.816C732.551 524.156 731.455 524.476 730.359 524.816C729.263 525.156 728.005 525.486 726.845 525.816L725.18 526.266C692.982 534.717 660.362 536.328 627.504 534.207L625.944 534.097L623.449 533.917C616.778 533.424 610.1 532.794 603.415 532.027L600.885 531.737L599.768 531.607C596.02 531.16 592.272 530.67 588.525 530.137C583.587 529.47 578.642 528.733 573.69 527.927L573.051 527.826L572.531 527.737C554.858 524.906 537.143 521.506 519.406 518.015L516.898 517.515L512.393 516.625L508.599 515.875L507.474 515.655C501.487 514.461 495.5 513.281 489.513 512.115L488.543 511.924C477.3 509.734 465.994 507.624 454.722 505.704L453.254 505.454C448.639 504.674 444.027 503.93 439.417 503.223L435.904 502.693L431.231 502.023C418.28 500.193 405.336 498.733 392.42 497.823C386.208 497.383 379.982 497.049 373.742 496.823C368.589 496.656 363.436 496.559 358.283 496.533C351.293 496.486 344.289 496.543 337.272 496.703H335.684C325.797 496.933 315.888 497.333 305.973 497.813L304.188 497.893H303.598C282.517 498.953 261.436 500.363 240.411 501.373L235.274 501.613H234.529C227.221 501.947 219.92 502.203 212.626 502.383H210.693H210.63H208.283L205.022 502.443C201.635 502.49 198.255 502.517 194.882 502.523H190.743C178.362 502.473 166.029 502.083 153.774 501.173L152.411 501.063C128.596 499.233 105.048 495.452 81.9221 488.582C79.5282 487.868 77.139 487.121 74.7545 486.341C58.7743 481.242 43.0838 474.452 27.8137 466.029C20.618 462.028 13.3801 457.408 7.90602 449.587C-5.97947 429.584 -0.765379 390.409 17.3012 379.018C31.4326 370.107 47.9884 377.358 63.188 373.337C64.1219 373.084 65.0442 372.75 65.9496 372.337C67.8819 371.45 69.7617 370.347 71.5713 369.036C72.1897 368.596 72.808 368.126 73.4334 367.636C74.8389 366.546 76.2443 365.336 77.5935 364.016C79.7991 361.928 81.9113 359.646 83.9178 357.185C84.8079 356.105 85.6746 354.985 86.5178 353.825C89.4361 349.923 92.0126 345.534 94.1914 340.753C94.9847 338.944 95.6891 337.059 96.2995 335.112C96.6298 334.112 96.9249 333.032 97.1709 331.992C97.5381 330.487 97.8178 328.941 98.0071 327.371C98.8925 319.95 97.459 312.709 92.4698 306.589C92.0229 306.046 91.5536 305.541 91.0644 305.078C90.0978 304.124 89.0778 303.285 88.0146 302.568C87.586 302.278 87.1432 301.998 86.6935 301.728C80.2708 297.878 71.9859 296.397 65.001 293.727C62.8723 292.959 60.794 291.932 58.789 290.657C57.5171 289.816 56.2523 288.936 55.0085 288.016L54.6782 287.756C44.0574 279.963 34.7172 269.055 27.2726 255.752C25.422 252.39 23.7182 248.87 22.171 245.211C21.7002 244.111 21.2434 242.981 20.8077 241.85C8.46116 210.146 7.18926 169.521 20.0347 138.347C21.5953 134.565 23.3325 130.937 25.2348 127.486C25.8532 126.346 26.4926 125.226 27.1532 124.126C39.3803 103.593 56.9479 89.6813 74.6843 79.38C98.492 65.5583 123.417 56.8272 148.82 51.0764C153.973 49.9096 159.126 48.8628 164.279 47.936C185.852 44.0156 207.679 41.9353 229.35 40.3551C249.621 38.8949 269.981 37.9515 290.429 37.5247C297.358 37.3914 304.294 37.3347 311.236 37.3547C326.879 37.3547 342.521 37.7848 358.163 38.6449C363.316 38.9249 368.47 39.2583 373.623 39.645C386.838 40.6185 400.028 41.952 413.192 43.6455C419.517 44.4589 425.827 45.3557 432.123 46.3358C480.076 53.7968 527.333 66.4484 572.96 86.1209C578.136 88.3478 583.289 90.6814 588.419 93.1217C607.607 102.113 626.461 112.484 644.91 124.196C646.653 125.309 648.391 126.429 650.124 127.556C661.644 135.077 672.999 143.181 684.191 151.869C698.961 163.182 713.187 175.878 726.775 189.874C732.078 195.408 737.231 201.182 742.235 207.196C751.079 217.813 759.328 229.396 766.907 241.84C767.581 242.954 768.249 244.074 768.909 245.201C772.339 251.062 775.594 257.132 778.677 263.413C793.715 294.177 803.806 329.361 811.255 365.306C817.825 396.67 822.196 431.884 811.775 461.118Z" fill="#6C63FF"/>
<path opacity="0.1" d="M802.323 353.825H742.29V245.141H768.993C768.333 244.014 767.665 242.894 766.99 241.78H742.318V207.136C737.325 201.135 732.171 195.361 726.859 189.814V241.82H588.461V127.486H650.166C648.427 126.359 646.689 125.239 644.951 124.126H588.461V93.0517C583.308 90.6314 578.154 88.2978 573.001 86.0509V124.056H375.484L375.014 123.416L432.151 46.2258C425.854 45.239 419.544 44.3423 413.22 43.5355L373.65 96.9822V39.575C368.497 39.1883 363.344 38.8549 358.191 38.5749V100.673L311.264 37.2847C304.326 37.2847 297.39 37.3414 290.457 37.4547L354.094 123.416L353.623 124.056H164.293V47.976C159.14 48.9028 153.987 49.9496 148.833 51.1164V124.126H27.1526C26.4921 125.226 25.8526 126.346 25.2342 127.486H148.819V241.78H20.7791C21.2147 242.911 21.6715 244.041 22.1423 245.141H148.819V353.825H86.5103C85.667 354.985 84.8003 356.105 83.9102 357.185H148.819V468.399C153.972 469.446 159.126 470.539 164.279 471.679V357.185H358.177V496.533C363.33 496.533 368.483 496.629 373.636 496.823V357.185H572.987V527.776L573.627 527.877C578.574 528.663 583.518 529.4 588.461 530.087V357.185H726.817V525.766C727.997 525.456 729.178 525.126 730.33 524.766C731.483 524.406 732.523 524.136 733.619 523.766C736.505 522.893 739.388 521.966 742.269 520.986V357.185H802.786C802.632 356.065 802.477 354.945 802.323 353.825ZM358.177 353.825H164.293V245.141H358.177V353.825ZM358.177 241.81H164.293V127.486H355.429L358.156 130.546L358.177 241.81ZM572.987 353.825H373.65V245.141H572.987V353.825ZM572.987 241.81H373.65V127.486H572.987V241.81ZM726.817 353.825H588.461V245.141H726.817V353.825Z" fill="#6C63FF"/>
<path d="M208.838 507.274C208.838 507.384 208.781 507.494 208.76 507.604C208.76 507.494 208.81 507.384 208.845 507.274H208.838Z" fill="#EAECF0"/>
<path d="M212.506 502.483H210.573H210.51H208.163L204.902 502.543L204.544 497.273L204.214 492.272L202.682 469.459L202.633 468.759V468.449L202.204 462.028L208.767 458.528L209.568 467.839L209.624 468.529V468.609L211.248 487.511L211.747 493.312L212.035 496.683L212.281 499.573V499.673L212.506 502.483Z" fill="#EAECF0"/>
<path d="M236.067 507.264L236.145 507.594H235.625L235.547 507.264H236.067Z" fill="#3A3768"/>
<path d="M337.847 375.497C337.847 375.697 337.847 375.807 337.847 375.807V375.927C337.847 375.927 331.72 399.76 329.724 420.103C329.588 421.436 329.476 422.77 329.387 424.103C329.288 425.514 329.211 426.894 329.169 428.234C329.113 429.804 329.099 431.324 329.127 432.774C329.127 433.105 329.127 433.445 329.127 433.775C329.127 434.445 329.176 435.135 329.204 435.845C329.232 436.555 329.274 437.265 329.317 438.005C329.359 438.745 329.401 439.395 329.45 440.105C330.961 462.108 336.702 494.322 336.702 494.322C336.702 494.322 336.892 495.192 337.138 496.673H335.55C325.662 496.903 315.754 497.303 305.839 497.783L304.054 497.863H303.464C282.383 498.923 261.302 500.333 240.277 501.343L235.14 501.583H234.395C227.087 501.917 219.786 502.173 212.492 502.353H210.559C211.055 501.358 211.625 500.443 212.26 499.623C212.793 498.919 213.369 498.283 213.981 497.723C217.321 494.759 220.958 492.536 224.768 491.132C225.571 490.819 226.402 490.674 227.234 490.702L232.153 490.842H232.912L240.459 491.052L305.193 492.882H305.354L305.811 492.752C306.562 492.486 307.294 492.117 307.996 491.652C309.212 490.922 310.275 489.758 311.083 488.272C311.89 486.786 312.415 485.029 312.606 483.171C312.606 482.861 312.662 482.531 312.676 482.171C312.698 481.684 312.698 481.197 312.676 480.711C312.676 480.37 312.676 480.01 312.62 479.64C312.564 479.27 312.55 478.9 312.501 478.52C310.941 466.109 308.285 427.904 308.285 427.904V428.024C308.285 428.024 308.285 426.394 308.348 423.653C308.348 423.443 308.348 423.213 308.348 422.983V422.393C308.348 421.783 308.397 421.123 308.425 420.393C308.425 419.963 308.467 419.523 308.488 419.063C308.523 418.393 308.566 417.703 308.608 416.983C308.604 416.939 308.604 416.896 308.608 416.853C308.636 416.399 308.664 415.939 308.692 415.472C308.692 415.472 308.692 415.372 308.692 415.322C309.739 400.57 313.035 377.217 323.449 368.566C328.333 364.496 331.565 363.676 333.694 364.476C336.8 365.636 337.58 370.237 337.749 373.227C337.749 373.427 337.749 373.617 337.749 373.807C337.805 374.367 337.838 374.932 337.847 375.497Z" fill="#3A3768"/>
<path opacity="0.1" d="M208.838 507.274C208.838 507.384 208.781 507.494 208.76 507.604C208.76 507.494 208.81 507.384 208.845 507.274H208.838Z" fill="black"/>
<path opacity="0.1" d="M236.067 507.264L236.145 507.594H235.625L235.547 507.264H236.067Z" fill="black"/>
<path opacity="0.1" d="M337.848 375.497C337.848 375.697 337.848 375.807 337.848 375.807C337.848 375.807 332.795 395.46 330.385 414.302C330.216 415.636 330.062 416.926 329.921 418.173C329.851 418.813 329.787 419.453 329.724 420.093C329.588 421.426 329.476 422.76 329.387 424.093C329.289 425.504 329.211 426.884 329.169 428.224C329.113 429.794 329.099 431.314 329.127 432.764C329.127 433.095 329.127 433.435 329.127 433.765C329.127 434.435 329.176 435.125 329.204 435.835C329.232 436.545 329.275 437.265 329.317 437.995C329.359 438.725 329.401 439.385 329.45 440.095C329.499 440.806 329.549 441.486 329.605 442.186C329.83 445.016 330.111 447.986 330.434 451.007C332.633 471.379 336.702 494.202 336.702 494.202C336.702 494.202 336.906 495.122 337.152 496.663H335.564C325.677 496.893 315.768 497.293 305.853 497.773L304.068 497.853H303.478C282.397 498.913 261.316 500.323 240.291 501.333L235.154 501.573H234.409C227.101 501.907 219.8 502.163 212.506 502.343H210.573H210.51C211.021 501.311 211.61 500.362 212.267 499.513C212.799 498.797 213.378 498.154 213.995 497.593C217.338 494.637 220.974 492.415 224.782 491.002C225.586 490.697 226.417 490.556 227.248 490.582L232.167 490.722H232.926L240.495 490.932L305.277 492.752H305.389C305.389 492.752 305.579 492.752 305.895 492.602C306.654 492.334 307.391 491.955 308.095 491.472C309.284 490.745 310.324 489.602 311.119 488.149C311.914 486.696 312.438 484.98 312.641 483.161C312.641 482.851 312.698 482.521 312.712 482.161C312.733 481.674 312.733 481.187 312.712 480.701C312.712 480.36 312.712 480 312.655 479.63C312.599 479.26 312.585 478.82 312.536 478.4C310.976 465.989 308.32 427.784 308.32 427.784C308.32 427.784 308.32 426.154 308.383 423.413C308.383 423.203 308.383 422.973 308.383 422.743V422.153C308.383 421.543 308.432 420.883 308.46 420.153C308.46 419.723 308.502 419.283 308.524 418.823C308.559 418.153 308.601 417.463 308.643 416.742C308.64 416.699 308.64 416.656 308.643 416.613C308.671 416.159 308.699 415.699 308.727 415.232C308.727 415.232 308.727 415.132 308.727 415.082C308.854 413.242 309.022 411.262 309.233 409.192C310.695 394.71 314.349 375.797 323.456 368.186C328.213 364.186 331.397 363.346 333.533 364.036C336.822 365.106 337.602 369.927 337.749 372.967C337.749 373.167 337.749 373.357 337.749 373.547C337.812 374.193 337.845 374.845 337.848 375.497Z" fill="black"/>
<path d="M208.838 507.274C208.838 507.384 208.781 507.494 208.76 507.604C208.76 507.494 208.81 507.384 208.845 507.274H208.838Z" fill="#3A3768"/>
<path d="M236.067 507.264L236.145 507.594H235.625L235.547 507.264H236.067Z" fill="#3A3768"/>
<path d="M336.049 374.647C336.049 374.647 326.878 410.312 327.321 431.654C327.764 452.997 334.924 493.102 334.924 493.102C334.924 493.102 335.233 494.512 335.564 496.763C325.677 496.993 315.768 497.393 305.853 497.873L304.068 497.953H303.478C282.397 499.013 261.316 500.423 240.291 501.433L235.154 501.673H234.409C227.101 502.007 219.8 502.263 212.506 502.443H210.573H210.51H208.163C209.13 500.134 210.448 498.162 212.021 496.673L212.21 496.483C215.556 493.576 219.19 491.401 222.99 490.032C223.794 489.727 224.624 489.586 225.456 489.612L231.949 489.792H232.708L240.53 490.012L303.598 491.802C304.5 491.561 305.376 491.154 306.205 490.592C306.48 490.412 306.748 490.208 307.006 489.982C307.797 489.333 308.509 488.505 309.114 487.531C310.442 485.381 311.327 482.181 310.737 477.53C309.17 465.119 306.521 426.914 306.521 426.914C306.521 426.914 306.071 380.428 321.727 367.376C328.052 362.106 331.607 362.286 333.596 364.376C333.656 364.429 333.712 364.49 333.765 364.556C336.505 367.696 336.049 374.647 336.049 374.647Z" fill="#3A3768"/>
<path d="M83.7064 462.158L83.4534 465.889L81.9215 488.782C79.5276 488.068 77.1384 487.321 74.7539 486.541L76.5458 465.729L77.1501 458.658L83.7064 462.158Z" fill="#EAECF0"/>
<path d="M38.7332 454.757L77.0026 338.833L231.155 355.945L245.364 454.757H38.7332Z" fill="#EFC6CD"/>
<path d="M38.7332 464.869V454.757H245.364V469.539L38.7332 464.869Z" fill="#D48A9B"/>
<path d="M97.0016 437.825L189.45 440.505C189.654 440.512 189.857 440.449 190.041 440.321C190.225 440.192 190.385 440.003 190.507 439.769C190.629 439.535 190.709 439.262 190.742 438.975C190.774 438.687 190.758 438.392 190.693 438.115L176.281 382.788L114.014 381.098L95.5962 434.765C95.4932 435.097 95.4501 435.461 95.4709 435.823C95.4918 436.185 95.5758 436.534 95.7154 436.838C95.855 437.142 96.0458 437.391 96.2704 437.564C96.4951 437.736 96.7464 437.826 97.0016 437.825Z" fill="#DFE6F5"/>
<path opacity="0.15" d="M97.0016 437.825L189.45 440.505C189.654 440.512 189.857 440.449 190.041 440.321C190.225 440.192 190.385 440.003 190.507 439.769C190.629 439.535 190.709 439.262 190.742 438.975C190.774 438.687 190.758 438.392 190.693 438.115L176.281 382.788L114.014 381.098L95.5962 434.765C95.4932 435.097 95.4501 435.461 95.4709 435.823C95.4918 436.185 95.5758 436.534 95.7154 436.838C95.855 437.142 96.0458 437.391 96.2704 437.564C96.4951 437.736 96.7464 437.826 97.0016 437.825Z" fill="black"/>
<path d="M96.2568 435.515L189.661 438.315L176.963 383.578C176.758 382.691 176.364 381.917 175.837 381.361C175.31 380.806 174.674 380.497 174.018 380.478L113.993 378.858L96.2568 435.515Z" fill="#DFE6F5"/>
<path d="M103.973 423.123L115.167 388.069C115.405 387.329 115.787 386.703 116.268 386.263C116.748 385.823 117.308 385.589 117.879 385.589H145.699C146.488 385.589 147.244 386.034 147.801 386.828C148.359 387.621 148.672 388.697 148.672 389.819V427.694C148.671 428.267 148.589 428.834 148.43 429.361C148.271 429.888 148.039 430.363 147.747 430.759C147.456 431.154 147.111 431.461 146.734 431.662C146.356 431.862 145.954 431.951 145.552 431.924L106.53 429.094C106.047 429.059 105.576 428.857 105.16 428.504C104.744 428.152 104.394 427.66 104.142 427.071C103.89 426.483 103.743 425.815 103.713 425.127C103.684 424.439 103.773 423.751 103.973 423.123Z" fill="#4C4C56"/>
<path d="M158.84 418.683L159.318 398.68C159.33 397.88 159.562 397.118 159.964 396.558C160.366 395.997 160.905 395.682 161.468 395.68H169.69C170.195 395.683 170.683 395.94 171.068 396.404C171.454 396.869 171.712 397.512 171.798 398.22L174.215 418.113C174.268 418.551 174.253 419.001 174.172 419.431C174.091 419.861 173.945 420.26 173.744 420.602C173.544 420.943 173.293 421.219 173.011 421.409C172.728 421.599 172.42 421.699 172.107 421.703L160.983 421.843C160.695 421.842 160.411 421.759 160.146 421.598C159.881 421.437 159.642 421.203 159.442 420.908C159.242 420.613 159.086 420.265 158.982 419.882C158.879 419.5 158.83 419.092 158.84 418.683Z" fill="#D1D9EC"/>
<path d="M49.9203 288.586L80.9167 284.906C81.3696 284.821 81.8297 284.947 82.2276 285.267C82.6256 285.586 82.9399 286.081 83.1232 286.676L112.433 381.098L96.0741 433.365C96.5871 431.724 96.9666 444.486 93.2633 433.425L46.6809 295.117C46.0554 293.267 48.4657 288.846 49.9203 288.586Z" fill="#4C4C56"/>
<path opacity="0.15" d="M49.9203 288.586L80.9167 284.906C81.3696 284.821 81.8297 284.947 82.2276 285.267C82.6256 285.586 82.9399 286.081 83.1232 286.676L112.433 381.098L96.0741 433.365C96.5871 431.724 96.9666 444.486 93.2633 433.425L46.6809 295.117C46.0554 293.267 48.4657 288.846 49.9203 288.586Z" fill="black"/>
<path d="M49.9203 288.586L82.4908 282.666C82.9437 282.581 83.4038 282.707 83.8017 283.026C84.1996 283.346 84.5139 283.84 84.6973 284.436L114.014 378.858L96.2779 435.515L48.2549 292.877C48.1078 292.445 48.0357 291.968 48.0447 291.488C48.0537 291.008 48.1436 290.538 48.3068 290.118C48.47 289.697 48.7017 289.339 48.9825 289.072C49.2633 288.806 49.5849 288.639 49.9203 288.586Z" fill="#4C4C56"/>
<path d="M58.0507 295.227L81.5984 290.006C82.0692 289.901 82.5513 290.025 82.966 290.359C83.3808 290.693 83.7037 291.218 83.8822 291.847L108.547 377.718C108.648 378.068 108.697 378.445 108.689 378.824C108.682 379.203 108.619 379.576 108.505 379.918L97.2125 413.502C97.0592 413.969 96.8154 414.364 96.5098 414.641C96.2043 414.918 95.8496 415.065 95.4874 415.065C95.1252 415.065 94.7705 414.918 94.465 414.641C94.1594 414.364 93.9156 413.969 93.7623 413.502L56.4555 299.488C56.3134 299.064 56.2432 298.598 56.2505 298.129C56.2578 297.659 56.3425 297.199 56.4977 296.784C56.6528 296.37 56.8742 296.013 57.1439 295.743C57.4137 295.472 57.7243 295.296 58.0507 295.227Z" fill="#6C63FF"/>
<path d="M309.303 488.712C309.303 488.712 308.819 489.852 308.109 491.712L308.046 491.882C307.413 493.482 306.64 495.582 305.853 497.883L304.068 497.963H303.478C282.397 499.023 261.316 500.433 240.291 501.443L235.154 501.683H234.409C227.101 502.017 219.8 502.273 212.506 502.453H210.573H210.51H208.163L204.902 502.513C201.515 502.56 198.135 502.587 194.762 502.593H190.743C178.361 502.543 166.029 502.153 153.773 501.243L152.41 501.133C154.82 493.672 159.128 481.441 162.627 477.53C165.333 474.53 184.763 471.199 202.633 468.759L204.516 468.499H204.558L209.547 467.839C216.385 466.949 222.589 466.229 227.016 465.739L227.424 465.689L225.119 454.687L221.781 438.685L222.73 425.243L222.807 424.163H222.702C221.75 424.307 220.788 424.136 219.891 423.663L186.519 422.023H185.915L173.098 421.373C166.225 421.023 161.341 420.763 161.152 420.713C160.95 420.665 160.752 420.588 160.561 420.483C160.262 420.321 159.986 420.084 159.746 419.783C159.466 419.442 159.229 419.036 159.044 418.583H158.903H158.594L156.781 418.753L155.86 418.843C155.825 418.703 155.797 418.563 155.762 418.433C155.678 418.043 155.593 417.673 155.516 417.293H155.031L148.707 417.103H148.594C148.594 417.103 132.278 418.873 123.754 414.452C120.627 412.832 118.547 410.382 118.708 406.711C118.744 405.876 118.867 405.054 119.074 404.271C116.333 396.98 129.72 383.678 139.923 387.349C142.68 388.471 145.585 388.642 148.398 387.849C149.924 387.379 151.362 386.448 152.614 385.118C152.74 384.988 152.853 384.858 152.958 384.728C152.79 384.578 152.614 384.448 152.452 384.328C151.753 383.804 151.002 383.433 150.225 383.228L152.993 382.078H153.035C153.035 382.078 162.873 380.798 169.275 380.288H169.317C171.222 380.148 172.831 380.058 173.786 380.098C178.003 380.268 186.217 375.977 186.569 374.657C186.92 373.337 190.672 374.657 190.672 374.657L193.954 372.837C197.236 371.027 199.112 368.556 199.112 366.736C199.112 364.916 202.042 362.946 202.042 362.946C203.363 359.785 205.956 356.395 208.676 353.394C211.03 350.804 213.475 348.494 215.288 346.884C215.991 340.405 216.929 333.982 218.099 327.641C219.343 321.73 223.201 317.35 224.585 315.93L225.091 315.45C224.703 312.959 224.186 310.512 223.545 308.129C223.498 307.929 223.442 307.729 223.376 307.529C223.236 307.059 223.088 306.599 222.941 306.169L222.723 305.568C222.365 305.668 222.02 305.758 221.641 305.828C220.477 306.071 219.303 306.195 218.127 306.199C212.858 306.226 207.728 303.797 203.521 299.281C199.314 294.766 196.262 288.413 194.832 281.195C194.832 281.195 194.832 281.195 194.832 281.135C194.269 278.202 193.985 275.175 193.989 272.134C193.986 269.216 194.255 266.31 194.79 263.493C194.896 262.893 195.022 262.303 195.156 261.713C195.169 261.645 195.185 261.578 195.205 261.513C195.268 261.243 195.331 260.963 195.402 260.693C194.362 260.918 193.312 261.048 192.261 261.083H191.558C189.551 261.189 187.551 260.716 185.676 259.693C185.222 259.417 184.787 259.082 184.376 258.693C184.355 258.678 184.336 258.658 184.32 258.633C183.786 258.188 183.299 257.64 182.872 257.002C183.654 256.15 184.31 255.085 184.801 253.87C185.292 252.654 185.608 251.312 185.732 249.921C185.922 247.761 185.669 245.351 186.576 243.591C187.04 242.796 187.596 242.119 188.22 241.59C191.958 237.96 194.924 232.979 198.304 228.689C201.684 224.398 205.774 220.688 210.32 220.488C216.42 220.218 221.788 226.258 227.832 227.399C229.687 227.749 231.591 227.629 233.404 228.289C235.436 229.193 237.347 230.572 239.061 232.369C240.608 233.622 241.977 235.278 243.094 237.25C243.871 238.96 244.427 240.853 244.739 242.841C245.521 247.029 245.992 251.323 246.144 255.652C246.306 260.183 246.144 264.743 246.481 269.244C246.72 273.153 247.648 276.913 249.18 280.175H249.271C249.538 280.709 249.829 281.216 250.143 281.695C249.545 281.965 248.948 282.206 248.337 282.416C247.32 282.786 246.29 283.077 245.252 283.286C244.776 283.397 244.294 283.454 243.811 283.456C243.476 283.468 243.141 283.424 242.813 283.326L243.432 283.916L245.146 285.556L245.793 286.166L247.093 287.396C247.388 286.166 247.796 285.836 248.266 285.916C249.222 284.636 250.648 287.406 250.648 287.406C251.485 289.686 253.733 291.957 255.722 293.637C256.891 294.617 258.094 295.511 259.327 296.317C285.587 318.59 283.922 351.914 285.468 354.555C287.014 357.195 287.112 366.756 287.112 366.756C287.112 366.756 290.984 399.25 292.734 402.061C294.483 404.871 292.846 405.851 294.371 408.991C295.896 412.132 295.544 420.533 295.544 420.533C295.544 420.533 296.599 440.325 300.351 444.616C303.717 448.466 308.214 480.861 309.107 487.481L309.303 488.712Z" fill="url(#paint0_linear)"/>
<path d="M155.389 384.458C155.389 384.458 151.742 392.629 141.413 388.869C131.083 385.108 117.415 399.33 121.315 406.351C125.215 413.372 150.365 404.351 150.365 404.351L160.013 401.571L159.381 390.139L155.389 384.458Z" fill="#D38884"/>
<path opacity="0.1" d="M155.389 384.458C155.389 384.458 151.742 392.629 141.413 388.869C131.083 385.108 117.415 399.33 121.315 406.351C125.215 413.372 150.365 404.351 150.365 404.351L160.013 401.571L159.381 390.139L155.389 384.458Z" fill="black"/>
<path d="M158.748 384.018L154.272 383.688L151.518 384.828C151.518 384.828 160.245 386.629 157.842 403.461L167.251 402.651L158.748 384.018Z" fill="#A36468"/>
<path opacity="0.1" d="M158.748 384.018L154.272 383.688L151.518 384.828C151.518 384.828 160.245 386.629 157.842 403.461L167.251 402.651L158.748 384.018Z" fill="black"/>
<path d="M218.001 346.374C218.001 346.374 205.717 356.375 202.267 364.686C202.267 364.686 199.4 366.686 199.4 368.446C199.4 370.207 197.559 372.687 194.348 374.447L191.129 376.247C191.129 376.247 187.454 374.937 187.11 376.247C186.765 377.558 178.733 381.798 174.595 381.638C170.456 381.478 154.272 383.638 154.272 383.638C157.236 385.553 159.656 388.842 161.137 392.967C162.617 397.093 163.071 401.811 162.424 406.351L200.665 404.071L215.127 399.49L223.629 387.399L218.001 346.374Z" fill="#444053"/>
<path opacity="0.1" d="M218.001 346.374C218.001 346.374 205.717 356.375 202.267 364.686C202.267 364.686 199.4 366.686 199.4 368.446C199.4 370.207 197.559 372.687 194.348 374.447L191.129 376.247C191.129 376.247 187.454 374.937 187.11 376.247C186.765 377.558 178.733 381.798 174.595 381.638C170.456 381.478 154.272 383.638 154.272 383.638C157.236 385.553 159.656 388.842 161.137 392.967C162.617 397.093 163.071 401.811 162.424 406.351L200.665 404.071L215.127 399.49L223.629 387.399L218.001 346.374Z" fill="black"/>
<path d="M161.651 418.683L156.24 418.533L149.915 418.343C149.915 418.343 120.05 421.613 120.634 408.021C121.217 394.43 144.188 389.659 147.386 393.56C149.81 396.51 155.418 398.89 157.976 399.86C158.791 400.17 159.29 400.34 159.29 400.34L161.651 418.683Z" fill="#D38884"/>
<path opacity="0.1" d="M161.651 418.683L156.24 418.533C154.083 407.981 156.584 402.171 158.004 399.89C158.819 400.2 159.318 400.37 159.318 400.37L161.651 418.683Z" fill="black"/>
<path d="M165.298 419.263L159.676 419.823L157.006 420.083C153.331 404.721 159.269 398.67 159.269 398.67H161.025L163.899 399.16L165.298 419.263Z" fill="#A36468"/>
<path d="M233.39 317.29L226.728 335.292C226.728 335.292 225.71 317.06 222.744 308.469C221.985 306.269 221.1 304.708 220.067 304.238C217.256 302.978 233.418 277.765 233.418 277.765C233.959 277.925 237.051 280.765 240.839 284.436C245.006 288.436 250.023 293.317 253.396 296.437C259.798 302.248 233.39 317.29 233.39 317.29Z" fill="#D38884"/>
<path d="M224.845 317.63C224.845 317.63 219.491 322.521 218.001 329.712C216.511 336.902 215.127 349.814 215.127 349.814C215.127 349.814 217.544 380.698 218.802 382.168C220.06 383.638 224.845 414.522 224.845 414.522L229.483 410.112L223.398 371.217C223.398 371.217 227.445 321.24 224.845 317.63Z" fill="#444053"/>
<path opacity="0.1" d="M224.845 317.63C224.845 317.63 219.491 322.521 218.001 329.712C216.511 336.902 215.127 349.814 215.127 349.814C215.127 349.814 217.544 380.698 218.802 382.168C220.06 383.638 224.845 414.522 224.845 414.522L229.483 410.112L223.398 371.217C223.398 371.217 227.445 321.24 224.845 317.63Z" fill="black"/>
<path d="M248.147 386.529H221.381L225.717 326.431H248.147V386.529Z" fill="#A36468"/>
<path d="M186.133 507.274H186.456L185.852 507.604L186.133 507.274Z" fill="#67647E"/>
<path d="M236.489 479.9L231.254 482.761L230.551 483.131L211.705 493.442L204.516 497.373L194.734 502.723H190.743C178.361 502.673 166.029 502.283 153.773 501.373C156.149 493.962 160.302 482.101 163.689 478.27C166.331 475.27 185.234 472.029 202.682 469.589C204.86 469.289 207.011 468.999 209.105 468.729L209.603 468.659C216.532 467.759 222.8 467.029 227.171 466.529L227.874 466.449L233.369 465.849L233.945 465.029L234.648 469.309L235.231 472.73L236.489 479.9Z" fill="#67647E"/>
<path opacity="0.1" d="M186.133 507.274H186.456L185.852 507.604L186.133 507.274Z" fill="black"/>
<path opacity="0.1" d="M236.489 479.9L231.254 482.761L230.551 483.131L211.705 493.442L204.516 497.373L194.734 502.723H190.743C178.361 502.673 166.029 502.283 153.773 501.373C156.149 493.962 160.302 482.101 163.689 478.27C166.331 475.27 185.234 472.029 202.682 469.589C204.86 469.289 207.011 468.999 209.105 468.729L209.603 468.659C216.532 467.759 222.8 467.029 227.171 466.529L227.874 466.449L233.369 465.849L233.945 465.029L234.648 469.309L235.231 472.73L236.489 479.9Z" fill="black"/>
<path d="M186.133 507.274H186.456L185.852 507.604L186.133 507.274Z" fill="#67647E"/>
<path d="M208.838 507.274C208.838 507.384 208.781 507.494 208.76 507.604C208.76 507.494 208.81 507.384 208.845 507.274H208.838Z" fill="#67647E"/>
<path d="M236.145 507.594H235.625L235.547 507.264H236.067L236.145 507.594Z" fill="#67647E"/>
<path d="M240.965 469.449L240.529 490.032V491.142V491.252L240.312 501.443L235.175 501.683H234.43C227.122 502.017 219.821 502.273 212.527 502.453H210.594H210.531H208.184L204.923 502.513C201.536 502.56 198.156 502.587 194.783 502.593H190.743C194.397 499.373 199.126 495.822 204.214 492.272C206.497 490.672 208.865 489.082 211.241 487.511C217.565 483.331 223.967 479.38 229.188 476.23L229.855 475.83C231.879 474.61 233.713 473.52 235.28 472.6C238.667 470.599 240.818 469.399 240.965 469.319V469.449Z" fill="#67647E"/>
<path opacity="0.1" d="M194.031 384.858C195.345 388.759 196.702 392.739 198.873 395.78C199.217 396.26 199.815 396.7 200.124 396.17C200.221 395.949 200.268 395.69 200.257 395.43C200.19 393.591 199.751 391.82 198.992 390.329C198.29 388.789 197.461 387.389 196.835 385.789C196.21 384.188 195.493 381.108 194.088 380.688C192.282 380.148 193.631 383.678 194.031 384.858Z" fill="black"/>
<path opacity="0.1" d="M240.811 284.406C240.712 284.906 240.607 285.406 240.495 285.886C239.198 291.541 236.872 296.606 233.755 300.567C230.637 304.528 226.838 307.244 222.744 308.439C221.985 306.239 221.1 304.678 220.067 304.208C217.256 302.948 233.418 277.735 233.418 277.735C233.931 277.895 237.023 280.785 240.811 284.406Z" fill="black"/>
<path d="M241.654 274.795C241.654 281.453 240.267 287.961 237.668 293.497C235.069 299.034 231.375 303.348 227.052 305.896C222.73 308.444 217.975 309.111 213.386 307.812C208.798 306.513 204.583 303.307 201.276 298.599C197.968 293.891 195.715 287.892 194.802 281.362C193.889 274.832 194.358 268.063 196.148 261.912C197.938 255.761 200.97 250.503 204.86 246.804C208.75 243.105 213.323 241.13 218.001 241.13C221.109 241.121 224.187 241.986 227.06 243.674C229.933 245.363 232.543 247.842 234.741 250.97C236.938 254.098 238.68 257.812 239.867 261.901C241.053 265.989 241.66 270.371 241.654 274.795Z" fill="#D38884"/>
<path d="M227.073 324.801C227.073 324.801 222.154 333.302 222.941 338.863H228.907L233.271 331.862L227.073 324.801Z" fill="#67647E"/>
<path opacity="0.1" d="M244.57 288.906L225.808 325.621C225.808 325.621 230.628 335.432 232.926 335.922C235.224 336.412 248.33 292.497 248.33 292.497L244.57 288.906Z" fill="black"/>
<path d="M244.809 288.246L226.04 325.011C226.04 325.011 230.86 334.812 233.158 335.302C235.456 335.792 248.562 291.887 248.562 291.887L244.809 288.246Z" fill="#A36468"/>
<path d="M223.629 335.272C223.629 335.272 222.709 355.855 221.788 359.945C220.868 364.036 221.788 401.611 221.788 401.611L230.404 396.55L228.907 338.863L223.629 335.272Z" fill="#67647E"/>
<path opacity="0.1" d="M236.067 507.264L236.145 507.594H235.625L235.547 507.264H236.067Z" fill="black"/>
<path opacity="0.1" d="M306.647 489.542C306.647 489.542 306.486 489.922 306.219 490.542C305.952 491.162 305.663 491.932 305.291 492.912C305.272 492.95 305.256 492.99 305.242 493.032C304.722 494.402 304.103 496.082 303.478 497.913C282.397 498.973 261.316 500.383 240.291 501.393L235.154 501.633H234.409L232.203 491.032V490.922L231.971 489.802L230.565 483.141L229.16 476.37L227.705 469.149L227.171 466.529L227.031 465.869L224.74 454.767L221.634 439.695L222.639 425.314L222.709 424.223L223.615 411.342L223.742 407.521L223.812 405.521V404.951L223.967 400.31L224.431 386.509L224.669 379.448L224.712 378.378L225.19 364.206L226.546 358.415L227.248 355.535L228.808 348.844L229.146 347.194C229.638 344.683 230.628 339.723 231.556 334.952L231.64 334.542L231.704 334.232L232.364 330.842L233.186 326.491C233.495 324.821 233.699 323.631 233.748 323.221C233.826 322.511 235.154 319.37 236.897 315.22C240.41 306.949 245.694 294.777 246.299 290.697C246.301 290.663 246.301 290.63 246.299 290.597C246.335 290.348 246.384 290.104 246.446 289.866C246.734 288.646 247.149 288.316 247.585 288.396C247.783 288.442 247.973 288.548 248.14 288.706C248.563 289.113 248.934 289.62 249.236 290.207C250.058 292.457 252.258 294.707 254.204 296.377L254.584 296.687L254.809 296.877C256.425 298.188 257.732 299.028 257.732 299.028C283.451 321.09 281.849 354.105 283.339 356.715C284.828 359.325 284.948 368.816 284.948 368.816C284.948 368.816 288.735 401.01 290.457 403.821C292.179 406.631 290.576 407.581 292.066 410.692C293.556 413.802 293.212 422.023 293.212 422.023C293.212 422.023 294.245 441.626 297.92 445.876C301.595 450.127 306.647 489.542 306.647 489.542Z" fill="black"/>
<path d="M307.336 489.222L307.027 489.982C306.781 490.602 306.387 491.582 305.916 492.812L305.867 492.952C305.333 494.362 304.701 496.072 304.075 497.953H303.485C282.404 499.013 261.323 500.423 240.298 501.433L235.161 501.673L232.961 491.032V490.922L232.729 489.802L231.275 482.801L229.869 476L228.464 469.209L227.909 466.489L225.506 454.807L222.329 439.415L223.208 426.904L223.327 425.234L224.297 411.022L224.669 399.94L225.126 386.549L225.246 383.038L225.379 378.978L225.435 377.267L225.892 363.886L227.248 358.105L227.832 355.615L229.195 349.764L229.483 348.524C229.483 348.524 230.797 341.953 232.069 335.442C232.118 335.202 232.167 334.962 232.209 334.722C232.322 334.162 232.427 333.602 232.54 333.052C232.652 332.492 232.758 331.942 232.856 331.392C233.214 329.571 233.559 327.871 233.798 326.471C234.142 324.641 234.374 323.311 234.423 322.881C234.5 322.171 235.828 318.94 237.634 314.74C240.958 306.919 245.807 295.737 246.833 291.097C246.888 290.857 246.935 290.613 246.973 290.367C247.036 289.629 247.248 288.934 247.585 288.366C248.526 287.076 249.925 289.846 249.925 289.846C250.747 292.097 252.946 294.357 254.893 296.017C256.03 296.989 257.203 297.874 258.406 298.668C284.125 320.73 282.523 353.744 284.013 356.365C285.503 358.985 285.622 368.456 285.622 368.456C285.622 368.456 289.41 400.65 291.131 403.461C292.853 406.271 291.251 407.221 292.741 410.322C294.23 413.422 293.886 421.763 293.886 421.763C293.886 421.763 294.919 441.376 298.594 445.626C302.269 449.877 307.336 489.222 307.336 489.222Z" fill="#444053"/>
<path opacity="0.1" d="M254.893 296.657C252.37 301.878 248.259 311.059 247.163 317.66C247.163 317.66 243.144 323.551 241.647 323.221C240.15 322.891 243.052 327.631 243.052 327.631L227.262 358.775L229.504 349.204C229.504 349.204 234.212 325.671 234.423 323.551C234.634 321.43 246.067 297.137 246.973 291.027C247.676 286.136 249.925 290.537 249.925 290.537C250.74 292.737 252.939 295.007 254.893 296.657Z" fill="black"/>
<path d="M254.893 296.007C252.37 301.218 248.259 310.409 247.163 316.96C247.163 316.96 243.144 322.841 241.647 322.521C240.15 322.201 243.052 326.931 243.052 326.931L227.262 358.075L229.504 348.504C229.504 348.504 234.212 324.971 234.423 322.841C234.634 320.71 246.067 296.437 246.973 290.327C247.676 285.426 249.925 289.836 249.925 289.836C250.74 292.087 252.939 294.337 254.893 296.007Z" fill="#444053"/>
<path opacity="0.1" d="M276.101 360.535C276.22 367.676 268.87 377.428 268.525 377.998C268.181 378.568 245.673 405.001 245.673 405.001L229.511 422.643C227.689 424.781 225.511 426.214 223.187 426.804L224.29 411.022L225.379 379.018C227.902 375.017 230.347 370.817 230.404 369.477C230.516 366.706 234.62 363.756 234.62 363.756C234.62 363.756 237.494 360.325 237.03 358.365C236.566 356.405 238.555 347.014 238.555 347.014C239.588 320.37 258.877 317.76 258.877 317.76C258.877 317.76 268.181 322.991 274.723 328.541C281.265 334.092 275.988 353.405 276.101 360.535Z" fill="black"/>
<path opacity="0.1" d="M165.298 419.263L159.676 419.823C157.301 414.072 160.569 398.67 160.569 398.67H161.025L163.899 399.16L165.298 419.263Z" fill="black"/>
<path d="M258.877 316.14C258.877 316.14 239.588 318.76 238.555 345.394C238.555 345.394 236.601 354.715 237.058 356.675C237.515 358.635 234.648 362.066 234.648 362.066C234.648 362.066 230.516 365.006 230.432 367.786C230.347 370.567 219.891 385.729 219.891 385.729C219.891 385.729 215.534 392.789 205.429 393.53C195.324 394.27 190.616 398.67 190.616 398.67C190.616 398.67 185.697 393.77 182.113 395.24C178.53 396.71 161.103 398.67 161.103 398.67C161.103 398.67 156.472 420.513 162.248 421.883C162.951 422.043 219.8 424.823 219.8 424.823C219.8 424.823 223.686 427.434 229.539 421.063C235.393 414.692 245.701 403.411 245.701 403.411C245.701 403.411 268.188 376.937 268.553 376.407C268.919 375.877 276.283 366.076 276.129 358.945C275.974 351.814 281.301 332.522 274.723 326.941C268.146 321.36 258.877 316.14 258.877 316.14Z" fill="#444053"/>
<path opacity="0.1" d="M241.654 274.795C241.656 278.337 241.265 281.858 240.494 285.226C240.174 284.688 239.883 284.116 239.623 283.516C238.527 281.115 237.428 278.715 236.327 276.315C235.472 274.154 234.334 272.247 232.975 270.694C231.57 269.274 229.574 268.694 228.056 269.954C226.721 271.074 226.068 273.364 225.948 275.565C225.907 277.773 225.947 279.983 226.068 282.186C226.124 283.029 225.973 283.874 225.639 284.576C225.14 285.212 224.496 285.567 223.826 285.576L221.718 285.986C221.528 286.081 221.326 286.121 221.124 286.104C220.923 286.086 220.726 286.011 220.545 285.884C220.364 285.756 220.203 285.578 220.072 285.36C219.94 285.142 219.84 284.889 219.779 284.616C218.029 280.105 216.82 274.505 213.539 272.334C211.515 270.994 208.844 271.084 207.544 268.504C206.659 266.744 206.779 264.353 207.039 262.213C207.325 259.799 207.736 257.419 208.268 255.092C208.641 253.452 209.47 250.181 207.629 249.851C206.378 249.621 204.649 251.512 204.017 252.852C203.384 254.192 203.23 255.982 202.78 257.512C201.918 260.146 200.367 262.195 198.458 263.223C197.503 263.782 196.502 264.168 195.479 264.373C197.207 256.734 200.796 250.225 205.598 246.02C210.401 241.814 216.101 240.189 221.671 241.436C227.241 242.684 232.315 246.723 235.977 252.824C239.64 258.926 241.651 266.689 241.647 274.715L241.654 274.795Z" fill="black"/>
<path d="M204.024 252.002C203.385 253.392 203.237 255.122 202.787 256.652C201.926 259.283 200.378 261.332 198.473 262.363C196.579 263.372 194.571 263.881 192.549 263.863C189.274 264.003 185.62 263.293 183.512 259.723C184.281 258.876 184.924 257.822 185.407 256.62C185.889 255.419 186.2 254.094 186.323 252.722C186.505 250.582 186.26 248.191 187.152 246.441C187.607 245.675 188.148 245.023 188.754 244.511C192.422 240.91 195.317 235.97 198.634 231.729C201.951 227.489 205.949 223.798 210.405 223.598C216.371 223.338 221.648 229.319 227.551 230.449C229.364 230.799 231.233 230.679 233.004 231.329C234.996 232.21 236.871 233.563 238.548 235.33C240.066 236.581 241.407 238.223 242.504 240.17C243.262 241.871 243.806 243.745 244.113 245.711C244.89 249.861 245.361 254.114 245.519 258.403C245.68 262.883 245.519 267.404 245.856 271.864C246.193 276.325 247.191 280.865 249.335 284.166C247.771 284.869 246.171 285.394 244.549 285.736C243.535 286.078 242.471 285.96 241.506 285.396C240.726 284.69 240.086 283.708 239.651 282.546L236.356 275.345C235.5 273.184 234.362 271.276 233.004 269.724C231.598 268.304 229.603 267.724 228.085 268.984C226.75 270.104 226.103 272.394 225.977 274.595C225.936 276.803 225.976 279.013 226.096 281.215C226.152 282.059 226.001 282.904 225.667 283.606C225.166 284.243 224.519 284.599 223.847 284.606L221.739 285.016C221.549 285.111 221.347 285.151 221.145 285.134C220.944 285.116 220.747 285.041 220.566 284.913C220.386 284.786 220.225 284.608 220.093 284.39C219.961 284.172 219.862 283.919 219.8 283.646C218.05 279.125 216.841 273.534 213.56 271.364C211.536 270.024 208.866 270.114 207.566 267.534C206.68 265.773 206.8 263.383 207.06 261.243C207.346 258.829 207.757 256.449 208.289 254.122C208.662 252.482 209.491 249.211 207.65 248.871C206.385 248.681 204.656 250.572 204.024 252.002Z" fill="#444053"/>
<path opacity="0.1" d="M257.528 331.082C259.306 330.732 261.175 330.502 262.841 331.472C258.505 328.941 251.45 329.912 247.5 333.392C247.859 334.562 256.151 331.352 257.528 331.082Z" fill="black"/>
<path opacity="0.1" d="M259.601 339.283C263.923 339.693 268.385 340.553 272.482 338.553C269.052 336.872 265.279 337.933 261.667 337.422C258.786 337.012 255.856 335.592 253.045 336.632C251.871 337.062 247.55 339.893 247.845 341.963C251.535 339.639 255.585 338.715 259.601 339.283Z" fill="black"/>
<path opacity="0.1" d="M248.154 352.724C249.059 352.589 249.973 352.725 250.838 353.124C254.08 354.21 257.402 354.731 260.732 354.675C263.276 354.675 266.017 354.125 267.872 351.674L248.154 352.724Z" fill="black"/>
<path opacity="0.1" d="M234.233 384.018C237.256 385.993 240.578 386.853 243.896 386.519C247.199 386.172 250.463 385.28 253.621 383.858C255.027 383.268 256.558 382.528 257.381 380.788L234.233 384.018Z" fill="black"/>
<path opacity="0.1" d="M265.342 388.419C271.917 393.771 279.239 396.997 286.789 397.87C282.98 395.696 279.143 393.64 275.278 391.699C271.325 389.728 267.273 388.183 263.157 387.079C263.939 387.319 264.682 387.774 265.342 388.419Z" fill="black"/>
<path opacity="0.1" d="M275.96 382.688C277.281 383.001 278.622 383.105 279.958 382.998C280.661 382.998 281.497 382.858 281.912 381.998C278.897 382.178 275.925 381.078 272.98 380.128C272.144 379.848 270.64 379.188 269.938 379.898C271.273 381.258 274.273 382.208 275.96 382.688Z" fill="black"/>
<path opacity="0.1" d="M294.083 472.029C295.664 475.89 297.266 479.79 299.452 483.031C300.715 484.798 302.06 486.442 303.478 487.951C300.871 478.49 298.222 468.949 294.048 460.678C292.994 458.598 291.42 455.617 289.501 455.237C288.953 457.548 290.337 461.638 291.005 463.808C291.921 466.629 292.949 469.374 294.083 472.029Z" fill="black"/>
<path opacity="0.1" d="M217.256 401.281C217.136 402.881 217.045 404.651 217.699 405.961C218.022 406.607 218.494 407.071 219.034 407.271C218.696 407.151 218.331 402.451 218.247 401.811C218.092 400.5 218.247 398.05 217.593 397.08C217.425 398.46 217.361 399.88 217.256 401.281Z" fill="black"/>
<path opacity="0.1" d="M220.91 399.44C221.142 400.849 221.573 402.176 222.177 403.34C222.781 404.504 223.546 405.481 224.423 406.211C223.194 404.051 222.793 401.211 221.725 398.84C221.381 398.08 220.98 396.99 220.32 396.84C220.486 397.72 220.683 398.588 220.91 399.44Z" fill="black"/>
<path opacity="0.1" d="M217.818 370.637C216.781 371.514 215.628 372.078 214.431 372.294C213.234 372.509 212.019 372.37 210.861 371.887C210.334 371.667 209.104 370.887 209.4 369.787C209.695 368.686 211.121 369.447 211.704 369.547L214.761 370.097C215.323 370.197 217.361 371.017 217.818 370.637Z" fill="black"/>
<path opacity="0.1" d="M207.474 377.758C208.915 377.498 210.208 378.918 211.557 379.688C213.05 380.396 214.624 380.695 216.195 380.568C216.982 380.568 217.874 380.478 218.359 379.568C214.698 378.378 211.276 377.067 207.474 377.758Z" fill="black"/>
<path d="M224.845 317.62H225.077L226.799 326.431L224.845 329.391V317.62Z" fill="#A36468"/>
<g opacity="0.1">
<path opacity="0.1" d="M186.773 247.761C186.559 249.191 186.453 250.65 186.456 252.112C186.544 251.652 186.608 251.184 186.647 250.712C186.731 249.751 186.724 248.741 186.773 247.761Z" fill="black"/>
<path opacity="0.1" d="M207.734 248.901C207.905 248.916 208.071 248.98 208.223 249.09C208.375 249.201 208.51 249.354 208.618 249.542C208.726 249.73 208.806 249.948 208.852 250.182C208.899 250.416 208.91 250.661 208.887 250.902C209.217 249.241 209.4 247.201 207.966 246.901C206.715 246.681 204.987 248.571 204.354 249.951C203.722 251.332 203.567 253.082 203.117 254.612C202.259 257.245 200.71 259.294 198.803 260.323C196.909 261.332 194.901 261.84 192.879 261.823C189.9 261.953 186.604 261.363 184.447 258.563C184.188 258.953 183.909 259.315 183.61 259.643C185.718 263.213 189.373 263.923 192.654 263.783C194.674 263.8 196.679 263.291 198.571 262.283C200.479 261.252 202.029 259.204 202.893 256.572C203.342 255.042 203.483 253.312 204.122 251.922C204.762 250.532 206.483 248.681 207.734 248.901Z" fill="black"/>
<path opacity="0.1" d="M244.851 283.766C243.837 284.108 242.773 283.989 241.808 283.426C241.029 282.716 240.391 281.735 239.953 280.575C238.857 278.175 237.758 275.775 236.658 273.374C235.806 271.213 234.671 269.304 233.313 267.754C231.907 266.324 229.905 265.753 228.394 267.014C227.052 268.134 226.405 270.424 226.25 272.624C226.25 272.714 226.25 272.804 226.25 272.894C226.505 271.281 227.194 269.873 228.169 268.974C229.666 267.714 231.682 268.294 233.088 269.714C234.445 271.269 235.582 273.177 236.44 275.335C237.536 277.735 238.635 280.135 239.735 282.536C240.169 283.7 240.808 284.682 241.591 285.386C242.552 285.949 243.614 286.068 244.626 285.726C246.25 285.383 247.853 284.858 249.419 284.156C249.11 283.68 248.823 283.175 248.561 282.646C247.342 283.129 246.103 283.503 244.851 283.766Z" fill="black"/>
<path opacity="0.1" d="M225.955 281.635C225.454 282.265 224.811 282.62 224.142 282.636L222.034 283.046C221.844 283.141 221.642 283.181 221.441 283.163C221.239 283.146 221.042 283.071 220.861 282.943C220.681 282.815 220.52 282.637 220.388 282.42C220.256 282.202 220.157 281.949 220.095 281.675C218.345 277.155 217.136 271.564 213.855 269.394C211.831 268.054 209.168 268.144 207.868 265.563C207.208 263.988 206.985 262.12 207.242 260.323C207.207 260.633 207.158 260.933 207.123 261.233C206.87 263.373 206.743 265.763 207.636 267.524C208.936 270.104 211.606 270.014 213.623 271.354C216.912 273.524 218.12 279.115 219.87 283.636C220.03 284.204 220.313 284.684 220.678 285.006C221.043 285.179 221.435 285.204 221.809 285.076L223.918 284.666C224.587 284.657 225.232 284.302 225.731 283.666C226.067 282.966 226.219 282.119 226.159 281.275C226.098 281.403 226.03 281.523 225.955 281.635Z" fill="black"/>
</g>
<path d="M516.799 517.465L512.294 516.575V421.933L513.215 422.333L516.026 423.563V426.714V429.084V432.675L516.061 436.785L516.124 445.246V446.096V447.226V449.627V451.077V454.587V456.788L516.461 499.403V500.543L516.581 515.545V515.775L516.799 517.465Z" fill="#EAECF0"/>
<path d="M519.328 517.965L516.82 517.465V515.755V515.525L516.7 500.523V499.383L516.363 456.768V454.567V451.057V449.607V447.206V446.076V445.226L516.3 436.765L516.265 432.654V429.064V426.694V423.543H518.97V427.024V429.404V432.144V435.775L519.026 444.916V446.916V449.007V450.467V452.257V454.587L519.286 499.313V500.463L519.371 515.335V515.575L519.328 517.965Z" fill="#D3DAE1"/>
<path d="M792.681 410.202V491.892C791.346 493.225 789.978 494.536 788.578 495.822L788.521 427.814V420.593L792.681 410.202Z" fill="#EAECF0"/>
<path d="M795.605 409.021V488.732C794.649 489.822 793.672 490.872 792.682 491.902V410.202L795.605 409.021Z" fill="#D3DAE1"/>
<path d="M730.351 524.786C728.623 525.286 726.887 525.786 725.151 526.216L725.088 452.297V449.097L730.098 446.096V452.877L730.351 524.786Z" fill="#EAECF0"/>
<path d="M733.654 443.756V523.766C732.558 524.106 731.462 524.426 730.365 524.766L730.134 452.887V446.106L730.464 445.886L733.654 443.756Z" fill="#D3DAE1"/>
<path d="M435.812 502.643L431.139 501.973L430.542 418.623V416.242V414.652H435.13V416.803V419.183L435.812 502.643Z" fill="#EAECF0"/>
<path d="M439.29 503.173L435.777 502.643L435.074 419.183V416.803V414.652H438.623V417.243V419.623L439.29 503.173Z" fill="#D3DAE1"/>
<path opacity="0.1" d="M730.429 445.896L733.64 443.746V453.837L730.513 455.327L730.429 445.896Z" fill="black"/>
<path opacity="0.1" d="M795.598 409.002V424.443L792.681 425.834L788.514 427.804L788.507 420.583L792.681 410.192L795.598 409.002Z" fill="black"/>
<path d="M795.598 379.318V422.073L730.513 452.947L730.091 407.221L795.598 379.318Z" fill="#D48A9B"/>
<path d="M429.677 376.347L515.211 353.184L795.598 379.318L730.091 407.221L429.677 376.347Z" fill="#EFC6CD"/>
<path opacity="0.1" d="M438.651 414.652L438.679 419.613L435.137 419.173L430.534 418.613L430.513 414.652H438.651Z" fill="black"/>
<path opacity="0.1" d="M518.794 429.414L516.089 429.074L512.294 428.614V421.933L516.047 423.553H518.759L518.794 429.414Z" fill="black"/>
<path d="M429.677 376.347V416.132L730.513 452.947L730.091 407.221L429.677 376.347Z" fill="#D48A9B"/>
<path d="M668.204 423.653H628.909V403.361L668.204 407.301V423.653Z" fill="#D48A9B"/>
<path opacity="0.1" d="M668.204 423.653H628.909V403.361L668.204 407.301V423.653Z" fill="black"/>
<path opacity="0.1" d="M576.128 398.91V430.974L726.964 447.306V413.162L668.134 408.411L662.287 415.832L638.297 413.462L629.745 404.551L576.128 398.91Z" fill="black"/>
<path d="M575.292 397.72V429.794L726.128 446.116V411.972L667.297 407.221L661.458 414.652L637.46 412.272L628.909 403.361L575.292 397.72Z" fill="white"/>
<path d="M482.247 389.109L517.923 392.679L517.509 408.811H494.214L478.635 400.1L482.247 389.109Z" fill="#D48A9B"/>
<path opacity="0.1" d="M482.247 389.109L517.923 392.679L517.509 408.811H494.214L478.635 400.1L482.247 389.109Z" fill="black"/>
<path opacity="0.1" d="M434.688 384.658V413.462L571.54 428.904V398.32L518.759 393.86L513.124 399.8L491.846 398.02L483.083 390.299L434.688 384.658Z" fill="black"/>
<path d="M433.851 383.468V412.272L570.703 427.714V397.13L517.923 392.679L512.294 398.61L491.009 396.83L482.247 389.109L433.851 383.468Z" fill="white"/>
<path opacity="0.1" d="M726.978 383.578L746.162 385.369L714.379 398.91L698.188 397.25L726.978 383.578Z" fill="black"/>
<path d="M726.978 382.398L746.162 384.178L714.379 397.72L698.188 396.06L726.978 382.398Z" fill="white"/>
<path d="M724.688 385.469C725.446 384.998 726.255 385.869 727.063 386.089C727.519 386.219 727.997 386.089 728.468 386.219C729.41 386.399 730.337 387.289 731.237 386.839L724.688 385.469Z" fill="#D3DAE1"/>
<path d="M723.697 386.279C724.449 385.819 725.257 386.689 726.065 386.909C726.529 387.029 727.007 386.909 727.47 387.029C728.405 387.209 729.34 388.109 730.239 387.659L723.697 386.279Z" fill="#D3DAE1"/>
<path d="M721.42 387.919C722.172 387.459 722.98 388.319 723.788 388.539C724.252 388.669 724.723 388.539 725.193 388.669C726.135 388.849 727.07 389.749 727.962 389.289L721.42 387.919Z" fill="#D3DAE1"/>
<path opacity="0.1" d="M597.547 368.596L640.321 372.587L631.207 391.219L584.181 384.068L597.547 368.596Z" fill="black"/>
<path d="M596.711 367.406L639.484 371.387L630.37 390.029L583.338 382.878L596.711 367.406Z" fill="#3A3768"/>
<path d="M598.594 368.776L635.901 372.027L627.953 387.209L586.936 381.378L598.594 368.776Z" fill="#D5E1F4"/>
<path d="M573.577 521.036C573.577 521.316 573.577 521.606 573.542 521.886C573.507 522.166 573.542 522.386 573.486 522.636C573.336 524.398 572.993 526.116 572.467 527.726C554.794 524.896 537.079 521.496 519.342 518.005L516.834 517.505L512.329 516.615L508.535 515.865C504.381 515.716 500.24 515.165 496.139 514.215C493.555 513.671 490.997 512.903 488.48 511.914C477.236 509.724 465.93 507.614 454.658 505.694L453.19 505.444C453.457 503.743 453.682 502.713 453.682 502.713C453.682 502.713 456.099 489.192 458.109 474.08C458.551 470.799 458.973 467.459 459.338 464.148C459.633 461.498 459.901 458.878 460.125 456.357C460.252 454.967 460.357 453.607 460.449 452.277C460.498 451.617 460.54 450.957 460.575 450.277C460.61 449.597 460.652 448.857 460.688 448.166C460.723 447.476 460.737 446.866 460.758 446.236V445.296C460.758 443.946 460.758 442.536 460.723 441.086C460.367 433.862 459.568 426.697 458.333 419.673C458.137 418.473 457.933 417.273 457.722 416.102C457.659 415.722 457.589 415.352 457.518 414.982C455.249 402.471 452.599 392.249 452.599 392.249C452.596 392.193 452.596 392.136 452.599 392.079C452.602 392.039 452.602 391.999 452.599 391.959C452.602 391.876 452.602 391.793 452.599 391.709C452.599 391.389 452.599 390.899 452.599 390.309C452.599 390.189 452.599 390.059 452.599 389.929C452.651 388.88 452.778 387.841 452.979 386.829C453.055 386.469 453.144 386.115 453.246 385.769C453.497 384.762 453.916 383.858 454.466 383.133C455.017 382.409 455.684 381.885 456.408 381.608C458.397 380.878 461.404 381.608 465.944 385.439C466.683 386.046 467.388 386.735 468.052 387.499C468.389 387.879 468.755 388.279 469.036 388.709C474.236 395.6 477.004 406.971 478.48 417.353C478.536 417.723 478.585 418.093 478.635 418.463C478.81 419.743 478.958 420.993 479.091 422.223C479.33 424.383 479.52 426.464 479.661 428.394C479.661 428.914 479.738 429.394 479.773 429.924C479.808 430.454 479.843 430.924 479.864 431.404C479.956 432.965 480.019 434.405 480.061 435.625C480.181 438.865 480.16 440.856 480.16 440.856V440.956C480.16 440.956 480.16 441.106 480.124 441.386C480.12 441.412 480.12 441.439 480.124 441.466C480.124 441.586 480.124 441.736 480.124 441.906C480.124 442.076 480.124 442.196 480.124 442.366C480.096 442.786 480.061 443.276 480.019 443.836C479.956 444.696 479.885 445.706 479.801 446.836C479.745 447.676 479.675 448.587 479.604 449.547C479.45 451.547 479.281 453.867 479.098 456.307C479.056 456.768 479.021 457.228 478.986 457.688C478.824 459.778 478.656 461.958 478.48 464.158C478.29 466.659 478.08 469.159 477.876 471.629C477.827 472.169 477.777 472.71 477.735 473.24C477.215 479.24 476.695 484.691 476.274 488.081C476.207 488.584 476.16 489.092 476.133 489.602C476.126 489.775 476.126 489.949 476.133 490.122C476.112 490.575 476.112 491.029 476.133 491.482C476.477 500.023 482.963 501.483 482.963 501.483L512.414 500.653L516.785 500.533L519.328 500.463L542.286 499.813L544.394 499.753L555.813 499.433C556.588 499.407 557.362 499.538 558.111 499.823C561.636 501.171 565 503.265 568.089 506.034C569.054 506.915 569.923 507.994 570.668 509.234C570.705 509.283 570.738 509.336 570.766 509.394C572.324 512.051 573.286 515.312 573.528 518.755C573.528 518.985 573.528 519.215 573.528 519.445C573.584 519.925 573.584 520.466 573.577 521.036Z" fill="#3A3768"/>
<path opacity="0.1" d="M573.577 521.036C573.577 521.316 573.577 521.606 573.542 521.886C573.507 522.166 573.542 522.386 573.486 522.636C573.319 524.399 572.963 526.116 572.432 527.726C554.759 524.896 537.044 521.496 519.307 518.005L516.799 517.505L512.294 516.615L508.5 515.865C504.346 515.716 500.205 515.165 496.104 514.215C493.52 513.671 490.962 512.903 488.444 511.914C477.201 509.724 465.895 507.614 454.623 505.694L453.155 505.444C453.422 503.683 453.66 502.613 453.66 502.613C453.66 502.613 455.635 491.612 457.511 478.28C457.645 477.36 457.771 476.44 457.898 475.51L458.088 474.1C458.523 470.829 458.945 467.469 459.317 464.168C459.612 461.518 459.879 458.898 460.104 456.377C460.231 454.987 460.336 453.627 460.428 452.297C460.477 451.637 460.519 450.977 460.554 450.297C460.589 449.617 460.631 448.876 460.666 448.186C460.702 447.496 460.716 446.886 460.737 446.256V445.316C460.737 443.966 460.737 442.556 460.702 441.106C460.356 433.883 459.564 426.717 458.333 419.693C458.137 418.479 457.933 417.289 457.722 416.122C457.652 415.742 457.589 415.372 457.518 415.002C455.242 402.451 452.599 392.169 452.599 392.169C452.601 392.146 452.601 392.123 452.599 392.099C452.602 392.059 452.602 392.019 452.599 391.979C452.602 391.896 452.602 391.813 452.599 391.729C452.599 391.409 452.599 390.919 452.599 390.329C452.599 390.209 452.599 390.079 452.599 389.949C452.644 388.901 452.764 387.862 452.958 386.849C453.035 386.499 453.119 386.139 453.218 385.789C453.471 384.727 453.909 383.775 454.492 383.021C455.074 382.267 455.782 381.736 456.549 381.478C458.537 380.818 461.51 381.638 465.951 385.339C466.721 385.982 467.454 386.711 468.143 387.519C468.474 387.909 468.79 388.299 469.099 388.719C474.257 395.65 477.004 407.001 478.466 417.353C478.522 417.723 478.571 418.103 478.621 418.473C478.796 419.743 478.944 421.003 479.077 422.223C479.316 424.383 479.499 426.454 479.64 428.374C479.675 428.904 479.717 429.424 479.745 429.924C479.773 430.424 479.815 430.924 479.836 431.404C479.928 432.965 479.991 434.405 480.033 435.625C480.153 438.865 480.131 440.856 480.131 440.856V441.196C480.131 441.256 480.131 441.316 480.131 441.386C480.127 441.412 480.127 441.439 480.131 441.466C480.131 441.586 480.131 441.736 480.131 441.906C480.131 442.076 480.131 442.196 480.131 442.366C480.103 442.786 480.068 443.276 480.026 443.836C479.963 444.696 479.893 445.706 479.808 446.836C479.738 447.666 479.675 448.576 479.604 449.547C479.45 451.547 479.281 453.867 479.098 456.307C479.056 456.768 479.021 457.228 478.986 457.688C478.824 459.778 478.649 461.978 478.48 464.178C478.276 466.679 478.072 469.179 477.862 471.639C477.812 472.179 477.77 472.719 477.721 473.25C477.208 479.25 476.695 484.621 476.274 487.991C476.204 488.53 476.157 489.075 476.133 489.622C476.126 489.795 476.126 489.968 476.133 490.142C476.112 490.595 476.112 491.049 476.133 491.502C476.534 499.943 482.963 501.353 482.963 501.353L512.414 500.533L516.778 500.403L519.328 500.333L542.328 499.693L544.478 499.633L555.855 499.313C556.631 499.277 557.405 499.409 558.153 499.703C561.705 501.013 565.096 503.087 568.209 505.854C569.19 506.747 570.072 507.846 570.823 509.114C570.859 509.163 570.892 509.216 570.921 509.274C572.478 511.943 573.428 515.221 573.648 518.675C573.648 518.905 573.648 519.135 573.648 519.365C573.584 519.925 573.584 520.466 573.577 521.036Z" fill="black"/>
<path d="M573.627 527.876L572.467 527.686C554.794 524.856 537.079 521.456 519.343 517.965L516.834 517.465L512.33 516.575L508.535 515.825C504.381 515.676 500.24 515.125 496.139 514.175C493.555 513.631 490.998 512.863 488.48 511.874C477.236 509.684 465.93 507.574 454.658 505.654C454.841 504.25 455.076 502.862 455.361 501.493C455.361 501.493 462.037 464.078 462.451 444.186C462.599 437.075 461.608 428.274 460.266 419.883C460.069 418.673 459.873 417.473 459.662 416.292L459.472 415.172C457.09 402.021 454.258 391.019 454.258 391.019C454.191 389.658 454.246 388.29 454.419 386.949C454.463 386.588 454.519 386.231 454.588 385.879C454.858 384.203 455.492 382.69 456.401 381.558C456.443 381.506 456.487 381.459 456.535 381.418C458.383 379.418 461.7 379.278 467.602 384.198C468.798 385.203 469.905 386.408 470.898 387.789C471.179 388.169 471.46 388.569 471.727 388.979C476.47 396.29 478.986 407.491 480.307 417.513L480.455 418.623C480.609 419.873 480.743 421.103 480.869 422.293C480.869 422.293 480.869 422.363 480.869 422.393C481.031 423.973 481.164 425.484 481.277 426.924C481.606 431.165 481.775 435.428 481.783 439.695C481.783 439.695 481.509 443.646 481.08 449.337C480.919 451.567 480.729 454.067 480.525 456.707C480.525 456.837 480.525 456.968 480.525 457.108L480.42 458.508C480.061 463.118 479.668 468.039 479.267 472.599C479.225 473.16 479.176 473.71 479.127 474.25C478.677 479.38 478.227 483.941 477.855 486.911C476.393 498.493 484.53 500.273 484.53 500.273L512.315 499.493L516.672 499.373L519.223 499.293H520.291H520.636L542.672 498.673H544.78L557.429 498.313C558.205 498.285 558.979 498.42 559.727 498.713C563.28 500.023 566.673 502.093 569.79 504.854C570.663 505.656 571.459 506.618 572.158 507.714C572.201 507.776 572.241 507.843 572.277 507.914C573.929 510.631 574.946 514.012 575.188 517.589C575.43 521.166 574.884 524.761 573.627 527.876Z" fill="#3A3768"/>
<path d="M672.961 347.094L681.555 373.297H680.115L670.038 347.404L672.961 347.094Z" fill="#4C4C56"/>
<path opacity="0.1" d="M672.961 347.094L681.555 373.297H680.115L670.038 347.404L672.961 347.094Z" fill="black"/>
<path d="M672.961 373.297H681.556V376.037L672.961 376.347V373.297Z" fill="#4C4C56"/>
<path opacity="0.1" d="M672.961 373.297H681.556V376.037L672.961 376.347V373.297Z" fill="black"/>
<path d="M606.113 250.672V342.173C606.113 343.974 606.616 345.701 607.51 346.975C608.405 348.248 609.619 348.964 610.884 348.964H718.047C718.678 348.964 719.302 348.785 719.884 348.438C720.465 348.09 720.992 347.582 721.434 346.941C721.875 346.3 722.223 345.541 722.456 344.706C722.689 343.872 722.802 342.98 722.79 342.083L721.575 250.502C721.551 248.734 721.04 247.05 720.153 245.812C719.266 244.574 718.074 243.88 716.831 243.881H610.884C610.258 243.881 609.637 244.056 609.058 244.398C608.479 244.739 607.953 245.239 607.51 245.87C607.067 246.5 606.716 247.249 606.476 248.073C606.236 248.897 606.113 249.78 606.113 250.672Z" fill="#4C4C56"/>
<path opacity="0.1" d="M606.113 250.672V342.173C606.113 343.974 606.616 345.701 607.51 346.975C608.405 348.248 609.619 348.964 610.884 348.964H718.047C718.678 348.964 719.302 348.785 719.884 348.438C720.465 348.09 720.992 347.582 721.434 346.941C721.875 346.3 722.223 345.541 722.456 344.706C722.689 343.872 722.802 342.98 722.79 342.083L721.575 250.502C721.551 248.734 721.04 247.05 720.153 245.812C719.266 244.574 718.074 243.88 716.831 243.881H610.884C610.258 243.881 609.637 244.056 609.058 244.398C608.479 244.739 607.953 245.239 607.51 245.87C607.067 246.5 606.716 247.249 606.476 248.073C606.236 248.897 606.113 249.78 606.113 250.672Z" fill="black"/>
<path d="M602.248 250.672V342.173C602.248 343.974 602.751 345.701 603.646 346.975C604.54 348.248 605.754 348.964 607.019 348.964H714.182C714.813 348.964 715.437 348.785 716.018 348.438C716.599 348.09 717.125 347.581 717.567 346.94C718.008 346.299 718.355 345.54 718.587 344.706C718.819 343.872 718.932 342.98 718.919 342.083L717.703 250.502C717.679 248.735 717.17 247.053 716.284 245.815C715.399 244.578 714.208 243.883 712.967 243.881H607.048C606.419 243.875 605.795 244.047 605.213 244.386C604.631 244.725 604.102 245.224 603.655 245.855C603.209 246.487 602.855 247.237 602.614 248.064C602.372 248.89 602.248 249.776 602.248 250.672Z" fill="#4C4C56"/>
<path d="M606.464 256.392V336.952C606.464 338.753 606.967 340.481 607.862 341.754C608.757 343.028 609.97 343.743 611.236 343.743H710.465C711.723 343.743 712.929 343.032 713.819 341.766C714.708 340.5 715.208 338.783 715.208 336.992V256.342C715.206 254.554 714.706 252.839 713.816 251.575C712.927 250.311 711.722 249.601 710.465 249.601H611.236C609.97 249.601 608.757 250.317 607.862 251.59C606.967 252.864 606.464 254.591 606.464 256.392Z" fill="#6C63FF"/>
<path d="M649.4 347.464L658.823 373.297H680.115L669.469 343.743L649.4 347.464Z" fill="#4C4C56"/>
<path d="M641.895 373.297L640.321 376.037H672.961V373.297H641.895Z" fill="#4C4C56"/>
<path d="M502.054 265.357C502.63 269.785 503.206 274.22 504.263 278.445C504.269 278.475 504.276 278.503 504.284 278.534C504.295 278.575 504.307 278.622 504.319 278.685C504.186 278.617 504.064 278.512 503.96 278.375C503.753 278.06 503.601 277.68 503.518 277.265C502.444 273.007 501.859 268.55 501.275 264.104C500.563 258.681 499.852 253.273 498.261 248.261C497.801 246.966 497.399 245.63 497.06 244.261C496.995 243.972 496.941 243.678 496.898 243.381L497.06 243.241L497.235 243.141L497.411 243.071L497.587 243.011C497.625 243.895 497.733 244.771 497.91 245.621C498.248 246.988 498.644 248.324 499.098 249.621C500.655 254.599 501.354 259.973 502.054 265.357Z" fill="url(#paint1_linear)"/>
<path d="M527.761 283.706C526.654 285.479 525.745 287.482 525.063 289.646C524.957 289.977 524.852 290.297 524.753 290.647C521.647 300.648 520.593 314.8 520.593 314.8C520.593 314.8 518.668 313.57 515.941 311.649C510.861 308.069 503.019 302.108 499.849 297.357C498.444 295.207 497.938 293.307 499.105 291.977C499.357 291.687 499.618 291.357 499.878 290.977C500.776 289.698 501.597 288.313 502.33 286.836C503.342 284.836 504.34 282.606 505.281 280.315C505.836 278.975 506.364 277.625 506.855 276.315L507.052 275.795C509.16 270.104 510.699 265.243 510.699 265.243C510.699 265.243 511.402 265.563 512.54 266.134C517.79 268.804 532.244 276.915 527.761 283.706Z" fill="#EFB7B9"/>
<path d="M623.947 515.425C623.947 515.425 624.805 524.486 625.894 534.047L623.399 533.867C616.728 533.374 610.05 532.744 603.365 531.977C599.571 519.465 595.635 504.614 595.635 504.384C595.635 504.153 595.516 499.263 595.382 493.802C595.34 491.882 595.291 489.902 595.249 488.041C595.179 485.221 595.115 482.681 595.08 481.101C595.08 480.02 595.038 479.38 595.038 479.38C595.038 479.38 591.426 480.28 588.18 480.911L586.739 481.181C585.994 481.311 585.334 481.411 584.736 481.471C584.222 481.582 583.698 481.582 583.183 481.471C582.073 480.861 584.378 465.469 584.378 465.469L590.112 445.716L591.714 440.215L592.417 439.965C592.761 439.845 593.225 439.705 593.78 439.555C599.254 438.125 613.878 436.305 616.358 456.848C619.429 482.221 619.872 487.921 619.872 487.921L623.947 515.425Z" fill="#EFB7B9"/>
<path opacity="0.05" d="M623.947 515.425C623.947 515.425 624.805 524.486 625.894 534.047L623.399 533.867C616.728 533.374 610.05 532.744 603.365 531.977C599.571 519.465 595.635 504.614 595.635 504.384C595.635 504.153 595.516 499.263 595.382 493.802C595.34 491.882 595.291 489.902 595.249 488.041C595.179 485.221 595.115 482.681 595.08 481.101C595.08 480.02 595.038 479.38 595.038 479.38C595.038 479.38 591.426 480.28 588.18 480.911L586.739 481.181C585.994 481.311 585.334 481.411 584.736 481.471C584.222 481.582 583.698 481.582 583.183 481.471C582.073 480.861 584.378 465.469 584.378 465.469L590.112 445.716L591.714 440.215L592.417 439.965C592.761 439.845 593.225 439.705 593.78 439.555C599.254 438.125 613.878 436.305 616.358 456.848C619.429 482.221 619.872 487.921 619.872 487.921L623.947 515.425Z" fill="black"/>
<path d="M623.399 533.867C616.728 533.374 610.05 532.744 603.365 531.977L600.835 531.687L599.718 531.557C596.57 520.746 593.773 510.174 593.773 509.984C593.773 509.794 593.654 504.864 593.52 499.403C593.359 492.582 593.176 484.981 593.176 484.981L592.705 485.091L592.508 485.141H592.424H592.255L591.124 485.411L590.506 485.551C589.388 485.811 588.039 486.101 586.718 486.371L586.423 486.431L585.65 486.571L584.947 486.691C584.406 486.791 583.893 486.871 583.429 486.931L582.86 487.001C582.346 487.118 581.822 487.118 581.307 487.001C580.197 486.391 582.502 470.999 582.502 470.999L589.838 445.746L590.091 445.646C590.478 445.506 591.293 445.236 592.396 444.966C592.811 444.866 593.267 444.766 593.759 444.676C600.126 443.516 612.24 443.846 614.482 462.378C617.553 487.751 617.996 493.452 617.996 493.452L622.092 521.036C622.092 521.036 622.626 526.736 623.399 533.867Z" fill="#EFB7B9"/>
<path opacity="0.1" d="M593.52 499.403C593.359 492.582 593.176 484.971 593.176 484.971C593.176 484.971 586.149 486.721 582.874 487.061L583.535 483.881C583.535 483.881 595.565 479.15 595.818 481.821C596.001 483.691 594.455 493.632 593.52 499.403Z" fill="black"/>
<path opacity="0.1" d="M593.773 439.505V446.736C593.773 446.736 593.176 459.738 588.482 479.63C588.383 480.06 588.278 480.48 588.166 480.901C587.673 482.814 587.091 484.679 586.423 486.481C585.102 486.741 583.823 486.961 582.874 487.061C582.359 487.173 581.836 487.173 581.321 487.061C580.211 486.451 582.509 471.059 582.509 471.059L589.845 445.816L590.105 445.716L591.7 440.205C591.7 440.205 592.487 439.845 593.773 439.505Z" fill="black"/>
<path d="M592.41 438.365V446.736C592.41 446.736 591.813 459.738 587.119 479.64C586.999 480.16 586.866 480.64 586.732 481.171C586.599 481.701 586.423 482.331 586.247 482.891C585.861 484.221 585.425 485.511 584.968 486.751C581.293 496.662 575.693 503.753 572.137 507.654C571.617 508.224 571.132 508.724 570.732 509.144H570.696C569.994 509.824 569.488 510.314 569.165 510.604C568.841 510.894 568.813 510.914 568.813 510.914C565.482 508.004 556.017 507.514 556.017 507.514L533.924 513.225C529.094 514.408 524.221 515.196 519.329 515.585L516.82 515.755C515.372 515.835 513.869 515.885 512.33 515.895C511.086 515.895 509.821 515.895 508.535 515.825C504.382 515.676 500.24 515.125 496.139 514.175C493.884 513.648 491.65 512.943 489.449 512.064C487.88 511.446 486.334 510.711 484.819 509.864C469.359 501.223 473.386 480.731 475.993 471.859C476.133 471.389 476.267 470.959 476.393 470.559C476.969 468.749 477.398 467.689 477.398 467.689L478.424 464.158L480.103 458.368L480.476 457.098L480.581 456.727L481.825 452.437L499.393 449.197L512.301 446.816L516.23 446.096L518.893 445.606L523.973 444.666L525.885 444.316C527.064 444.056 528.255 443.922 529.448 443.916C530.092 443.873 530.737 444.009 531.345 444.316C532.75 445.226 543.46 442.736 543.46 442.736C543.46 442.736 551.815 439.095 559.151 440.305C562.779 440.662 566.419 440.695 570.05 440.405L570.949 440.345L572.116 440.275H572.369C581.869 439.645 592.41 438.365 592.41 438.365Z" fill="#444053"/>
<path opacity="0.1" d="M529.202 463.488C529.202 463.488 520.769 490.802 520.418 491.282C520.066 491.762 520.08 500.283 520.418 499.783C520.755 499.283 532.448 462.398 532.448 462.398L529.202 463.488Z" fill="black"/>
<path opacity="0.1" d="M570.057 440.385C570.057 440.385 565.791 444.306 564.513 447.466C563.234 450.627 551.548 482.061 548.652 486.671C546.248 490.796 544.08 495.187 542.166 499.803C541.829 500.633 541.829 505.854 543.874 500.873C545.919 495.892 545.413 495.052 549.418 488.872C553.424 482.691 557.851 468.719 559.565 465.929C561.28 463.138 563.662 454.757 566.649 449.777L572.369 440.265L570.057 440.385Z" fill="black"/>
<path opacity="0.1" d="M571.083 494.322C571.083 494.322 568.096 491.412 565.286 496.383C562.475 501.353 571.083 494.322 571.083 494.322Z" fill="black"/>
<path opacity="0.1" d="M574.751 495.822C574.751 495.822 572.278 501.963 571.083 502.453C569.888 502.943 574.751 495.822 574.751 495.822Z" fill="black"/>
<path opacity="0.1" d="M571.083 497.353C571.083 497.353 569.122 502.213 567.415 501.723L571.083 497.353Z" fill="black"/>
<path d="M557.275 366.126C557.275 366.126 575.355 365.036 577.147 364.186C578.939 363.336 594.799 360.425 594.799 360.425C594.799 360.425 641.796 365.156 628.41 370.867C615.023 376.577 596.851 374.137 596.851 374.137C596.851 374.137 579.108 380.698 576.381 384.138C573.655 387.579 553.522 387.659 553.522 387.659L557.275 366.126Z" fill="#EFB7B9"/>
<path opacity="0.05" d="M557.275 366.126C557.275 366.126 575.355 365.036 577.147 364.186C578.939 363.336 594.799 360.425 594.799 360.425C594.799 360.425 641.796 365.156 628.41 370.867C615.023 376.577 596.851 374.137 596.851 374.137C596.851 374.137 579.108 380.698 576.381 384.138C573.655 387.579 553.522 387.659 553.522 387.659L557.275 366.126Z" fill="black"/>
<path d="M492.956 307.499C492.956 307.499 476.407 315.5 484.425 335.902C492.443 356.305 502.766 365.906 502.766 365.906L529.377 392.129C529.377 392.129 540.55 401.23 545.666 397.47L554.021 396.47L555.427 365.266C555.427 365.266 548.399 373.037 540.754 362.266C533.109 351.494 523.692 344.173 522.926 338.353C522.16 332.532 502.59 302.518 492.956 307.499Z" fill="#A36468"/>
<path d="M545.237 373.537C545.237 373.537 553.853 377.908 553.515 378.148C553.178 378.388 545.237 382.638 545.237 382.638L545.835 399.27L557.521 398.36C557.521 398.36 561.786 368.076 558.118 365.036L545.237 364.186V373.537Z" fill="#67647E"/>
<path opacity="0.1" d="M545.237 373.537C545.237 373.537 553.853 377.908 553.515 378.148C553.178 378.388 545.237 382.638 545.237 382.638L545.835 399.27L557.521 398.36C557.521 398.36 561.786 368.076 558.118 365.036L545.237 364.186V373.537Z" fill="black"/>
<path opacity="0.1" d="M527.761 283.706C526.655 285.479 525.745 287.483 525.063 289.647C524.957 289.977 524.852 290.297 524.753 290.647C518.478 290.647 513.967 283.706 510.116 277.495C509.413 276.345 507.635 278.085 507.052 276.795C506.989 276.645 506.926 276.495 506.855 276.345L507.052 275.825C509.16 270.134 510.699 265.273 510.699 265.273C510.699 265.273 511.402 265.593 512.54 266.164C517.79 268.804 532.244 276.915 527.761 283.706Z" fill="black"/>
<path d="M546.031 259.553C546.03 267.487 543.828 275.099 539.904 280.734C535.979 286.37 530.651 289.573 525.077 289.647H524.873C521.871 289.649 518.902 288.741 516.166 286.982C513.43 285.223 510.989 282.653 509.006 279.445C508.296 278.299 507.648 277.079 507.066 275.795C505.29 271.856 504.184 267.383 503.834 262.73C503.485 258.076 503.902 253.371 505.053 248.987C506.204 244.604 508.057 240.662 510.465 237.476C512.874 234.289 515.77 231.945 518.926 230.63C522.081 229.314 525.409 229.064 528.644 229.898C531.88 230.732 534.934 232.628 537.565 235.435C540.196 238.243 542.331 241.884 543.8 246.07C545.27 250.257 546.034 254.873 546.031 259.553Z" fill="#EFB7B9"/>
<path opacity="0.1" d="M524.514 446.246C524.514 446.246 522.905 449.047 521.127 451.657C519.785 453.657 518.352 455.487 517.431 455.957C515.323 457.058 505.661 467.489 505.661 467.489C505.661 467.489 497.987 474.9 496.027 477.08C494.066 479.26 486.983 477.93 486.983 477.93C486.983 477.93 480.167 475.81 475.943 471.929C476.354 470.504 476.823 469.115 477.349 467.769L481.783 452.467L499.351 449.237L524.514 446.246Z" fill="black"/>
<path d="M524.17 444.306C524.17 444.306 522.568 447.106 520.79 449.717C519.448 451.717 517.979 453.547 517.094 454.017C514.986 455.107 505.323 465.549 505.323 465.549C505.323 465.549 497.643 472.96 495.682 475.14C493.722 477.32 486.646 475.99 486.646 475.99C486.646 475.99 476.92 472.99 473.505 467.489C471.116 463.658 473.589 456.557 475.276 452.647C475.978 450.977 476.576 449.887 476.576 449.887L524.17 444.306Z" fill="#67647E"/>
<path d="M536.798 350.224C530.993 349.494 511.887 316.22 511.887 316.22L512.322 315.37L516.328 307.479H525.695L526.728 314.76C533.853 328.981 538.049 338.873 539.187 344.533C540.009 348.654 539.229 350.534 536.798 350.224Z" fill="#67647E"/>
<path opacity="0.1" d="M536.798 350.224C530.993 349.494 511.887 316.22 511.887 316.22L512.322 315.37C515.747 319.843 518.965 324.627 521.957 329.692C535.94 353.114 538.709 346.574 539.187 344.533C540.009 348.654 539.229 350.534 536.798 350.224Z" fill="black"/>
<path opacity="0.1" d="M524.17 444.306C524.17 444.306 522.568 447.106 520.79 449.717C519.853 450.234 518.864 450.537 517.86 450.617C515.639 450.497 510.524 455.477 510.524 455.477C510.524 455.477 501.487 454.747 499.779 456.077C498.072 457.408 491.501 457.658 491.501 457.658C479.478 462.538 476.154 455.127 475.276 452.657C475.979 450.987 476.576 449.897 476.576 449.897L524.17 444.306Z" fill="black"/>
<path d="M545.055 372.017C545.055 372.487 544.991 372.957 544.949 373.407C544.907 373.857 544.865 374.317 544.816 374.747C544.589 377.218 544.068 379.616 543.277 381.838C541.745 385.479 537.051 399.68 537.051 399.68L536.735 402.301L536.573 403.671L536.404 405.021L535.259 414.592L534.746 425.644C534.746 425.644 531.935 431.224 530.74 433.645C529.546 436.065 529.715 439.595 530.143 442.146C530.572 444.696 526.222 445.056 526.222 445.056C526.222 445.056 520.08 449.307 517.86 449.187C515.639 449.067 510.524 454.027 510.524 454.027C510.524 454.027 501.487 453.297 499.779 454.637C498.072 455.977 491.501 456.217 491.501 456.217C478.628 461.428 475.726 452.567 475.128 450.747C474.531 448.926 477.686 441.526 477.686 441.526C477.686 441.526 478.389 432.174 479.731 431.444C481.073 430.714 482.717 418.343 482.717 418.343C482.717 418.343 482.204 414.572 483.315 412.512C484.425 410.452 484.341 404.621 485.788 401.831C487.236 399.04 484.256 389.689 484.769 387.259C485.282 384.828 483.146 374.997 483.315 372.447C483.483 369.897 482.893 367.836 481.523 362.736C480.356 358.385 480.687 339.053 480.82 333.512C480.82 332.572 480.855 332.032 480.855 332.032C480.855 332.032 482.05 326.561 485.205 315.64C487.594 307.369 492.97 304.238 495.436 303.218C495.859 303.037 496.289 302.887 496.722 302.768C497.341 302.895 497.948 303.113 498.535 303.418C501.023 304.608 505.998 307.979 513.095 317.42C516.236 321.608 519.199 326.056 521.971 330.742C537.971 357.505 539.278 345.013 539.278 345.013C539.278 345.013 539.981 347.294 543.277 356.395C545.041 361.235 545.364 367.016 545.055 372.017Z" fill="#A36468"/>
<path opacity="0.1" d="M518.71 306.009L502.66 287.786C502.66 287.786 496.877 288.786 494.488 302.608L511.008 323.201L518.71 306.009Z" fill="black"/>
<path d="M518.71 306.009L515.899 311.599L513.046 317.33L510.896 321.82L497.706 306.009L495.436 303.208L494.165 301.668C495.451 294.197 497.734 290.467 499.554 288.666C500.381 287.767 501.343 287.154 502.365 286.876L518.71 306.009Z" fill="#67647E"/>
<path d="M629.084 378.148C615.691 383.848 597.526 381.428 597.526 381.428C597.526 381.428 579.782 387.979 577.056 391.429C575.299 393.62 566.326 394.43 560.191 394.76C556.783 394.94 554.232 394.95 554.232 394.95L557.977 373.417L560.142 373.277C564.997 372.957 576.445 372.137 577.85 371.467C579.642 370.617 595.502 367.706 595.502 367.706C595.502 367.706 642.471 372.437 629.084 378.148Z" fill="#EFB7B9"/>
<path opacity="0.1" d="M544.816 374.697C544.589 377.168 544.068 379.566 543.277 381.788C541.745 385.429 537.051 399.63 537.051 399.63L536.404 405.021C534.226 403.869 532.112 402.485 530.08 400.88L503.447 374.627C503.447 374.627 493.125 365.036 485.107 344.623C477.089 324.211 493.638 316.22 493.638 316.22C503.272 311.219 522.807 341.223 523.573 347.054C524.339 352.884 533.727 360.165 541.401 370.967C542.412 372.429 543.562 373.684 544.816 374.697Z" fill="black"/>
<path opacity="0.1" d="M545.055 372.017C544.991 372.967 544.914 373.877 544.816 374.747C544.589 377.218 544.068 379.616 543.277 381.838C541.745 385.479 537.051 399.68 537.051 399.68L536.735 402.301C534.431 401.118 532.199 399.673 530.059 397.98L503.447 371.717C503.447 371.717 493.125 362.126 485.107 341.713C477.089 321.3 493.638 313.299 493.638 313.299C503.272 308.299 522.807 338.303 523.573 344.133C524.339 349.964 533.727 357.245 541.401 368.056C542.472 369.629 543.704 370.964 545.055 372.017Z" fill="black"/>
<path d="M556.073 372.567L554.71 403.761L546.348 404.761C546.164 404.898 545.974 405.015 545.778 405.111C540.452 407.891 530.059 399.42 530.059 399.42L503.447 373.167C503.447 373.167 493.125 363.576 485.107 343.163C477.089 322.751 493.638 314.76 493.638 314.76C503.272 309.759 522.807 339.763 523.573 345.594C524.339 351.424 533.727 358.705 541.401 369.507C542.525 371.116 543.82 372.466 545.237 373.507C546.932 374.774 548.837 375.356 550.747 375.19C552.658 375.024 554.499 374.117 556.073 372.567Z" fill="#A36468"/>
<path opacity="0.1" d="M556.073 372.567L554.71 403.761L546.348 404.761C546.164 404.898 545.974 405.015 545.778 405.111L545.237 389.949C545.237 389.949 553.171 385.699 553.515 385.459C553.86 385.218 545.237 380.848 545.237 380.848V373.597C546.937 374.851 548.846 375.418 550.756 375.236C552.667 375.054 554.505 374.131 556.073 372.567Z" fill="black"/>
<path opacity="0.1" d="M560.156 394.71C556.748 394.89 554.197 394.9 554.197 394.9L557.977 373.417L560.142 373.277C561.533 376.687 560.936 386.709 560.156 394.71Z" fill="black"/>
<path d="M545.919 380.818C545.919 380.818 554.534 385.188 554.197 385.428C553.859 385.669 545.919 389.919 545.919 389.919L546.516 406.551L558.202 405.641C558.202 405.641 562.468 375.357 558.8 372.317L545.919 371.467V380.818Z" fill="#67647E"/>
<path opacity="0.1" d="M494.832 400.73C494.832 400.73 491.93 404.611 489.541 405.641L494.832 400.73Z" fill="black"/>
<path opacity="0.1" d="M487.924 412.262C487.924 412.262 495.001 411.892 495.851 409.832C496.701 407.771 487.924 412.262 487.924 412.262Z" fill="black"/>
<path opacity="0.1" d="M484.425 426.704C484.854 426.704 493.377 425.004 493.722 423.423L484.425 426.704Z" fill="black"/>
<path opacity="0.1" d="M481.783 435.935C484.854 435.805 490.054 431.074 490.054 431.074L481.783 435.935Z" fill="black"/>
<path opacity="0.1" d="M501.656 438.355C501.656 438.355 520.165 438.355 521.015 433.505C521.865 428.654 501.656 438.355 501.656 438.355Z" fill="black"/>
<path opacity="0.1" d="M515.555 370.497C515.899 370.497 530.143 370.497 531.506 367.706C532.87 364.916 515.555 370.497 515.555 370.497Z" fill="black"/>
<path opacity="0.1" d="M499.871 291.007C499.986 291.999 500.047 293.002 500.053 294.007C500.054 295.124 499.983 296.239 499.843 297.337C499.561 299.424 499.118 301.46 498.521 303.408L498.374 303.898C498.163 304.598 497.938 305.278 497.706 305.959C496.662 308.989 495.43 311.881 494.024 314.6C490.817 320.662 487.108 326.152 482.978 330.952C482.261 331.812 481.537 332.662 480.806 333.502C480.806 332.562 480.841 332.022 480.841 332.022C480.841 332.022 482.036 326.551 485.191 315.63C487.58 307.359 492.956 304.228 495.422 303.208L494.151 301.668C495.437 294.197 497.72 290.467 499.54 288.666C499.653 289.406 499.786 290.187 499.871 291.007Z" fill="black"/>
<path opacity="0.1" d="M542.94 243.921C542.723 243.997 542.515 244.115 542.321 244.271C540.986 245.321 540.6 247.811 539.51 249.381C538.253 251.232 536.285 251.512 534.493 251.832C532.701 252.152 530.698 252.782 529.75 254.972C529.047 256.602 529.11 258.653 528.857 260.533C528.83 260.871 528.735 261.19 528.583 261.453C528.342 261.732 528.037 261.874 527.726 261.853C524.212 262.203 521.655 260.483 518.366 259.273C516.82 258.713 515.021 258.783 513.84 260.273C512.772 261.643 512.477 263.883 512.505 265.933V266.113C512.657 268.106 512.699 270.112 512.632 272.114C512.47 273.663 512.053 275.134 511.414 276.409C510.775 277.683 509.933 278.724 508.957 279.445C508.136 280.072 507.23 280.44 506.3 280.525C505.942 280.579 505.579 280.503 505.246 280.305C505.872 278.785 506.469 277.305 507.017 275.795C505.493 272.44 504.452 268.687 503.957 264.754C503.461 260.821 503.521 256.787 504.132 252.887C504.743 248.987 505.893 245.3 507.515 242.039C509.137 238.778 511.199 236.009 513.581 233.893C515.962 231.778 518.616 230.358 521.387 229.717C524.158 229.075 526.991 229.225 529.72 230.157C532.45 231.09 535.023 232.786 537.287 235.147C539.552 237.508 541.464 240.487 542.912 243.911L542.94 243.921Z" fill="black"/>
<path d="M548.73 240.08C548.473 240.899 548.068 241.606 547.556 242.131C545.954 243.611 543.656 241.98 541.984 243.301C540.642 244.351 540.262 246.841 539.173 248.411C537.922 250.262 535.955 250.542 534.156 250.862C532.357 251.182 530.368 251.812 529.412 254.002C528.71 255.632 528.78 257.672 528.52 259.563C528.496 259.902 528.4 260.222 528.246 260.483C528.003 260.759 527.699 260.901 527.389 260.883C523.875 261.233 521.317 259.503 518.029 258.303C516.49 257.742 514.691 257.812 513.51 259.303C512.33 260.793 512.147 262.923 512.168 264.973C512.314 267.02 512.359 269.079 512.301 271.134C512.058 273.34 511.303 275.366 510.157 276.89C509.011 278.414 507.54 279.349 505.977 279.545C505.749 279.594 505.517 279.578 505.294 279.497C505.071 279.416 504.861 279.273 504.677 279.075C504.474 278.763 504.327 278.385 504.248 277.975C501.908 268.614 501.93 258.223 499.091 249.141C498.633 247.847 498.236 246.51 497.903 245.141C497.847 244.861 497.791 244.571 497.748 244.281C497.665 243.703 497.608 243.119 497.58 242.531C497.289 242.59 497.014 242.751 496.779 243.001C496.695 243.102 496.62 243.216 496.554 243.341C496.152 244.297 495.947 245.396 495.964 246.511C495.439 259.015 496.292 271.558 498.493 283.686C499.165 286.714 499.573 289.848 499.709 293.017C499.631 296.444 499.057 299.811 498.022 302.908C493.617 317.37 484.762 327.961 475.958 337.533C476.862 336.152 477.561 334.525 478.01 332.749C478.459 330.973 478.65 329.086 478.572 327.201C478.42 327.921 478.132 328.566 477.739 329.068C477.346 329.569 476.863 329.906 476.344 330.042C475.303 330.293 474.238 330.27 473.203 329.972C474.552 329.342 475.079 327.081 475.416 325.121C476.105 321.12 476.745 317.083 477.335 313.009C477.964 309.121 478.377 305.168 478.572 301.188C478.677 297.808 478.494 294.417 478.396 291.027C478.187 281.73 478.422 272.424 479.099 263.173C479.619 255.172 480.56 246.521 484.685 241.06C486.466 238.919 488.454 237.154 490.588 235.82C490.588 234.82 495.739 232.819 496.42 232.679C496.703 232.601 496.99 232.554 497.278 232.539C497.646 232.463 498.021 232.555 498.351 232.801C498.68 233.047 498.947 233.435 499.112 233.909C499.365 233.259 499.646 232.619 499.941 232.009C500.347 231.17 500.793 230.371 501.276 229.619C503.953 225.418 507.425 222.458 510.524 218.898C511.661 217.445 512.894 216.153 514.206 215.037C515.921 213.81 517.803 213.127 519.722 213.037C522.894 212.782 526.068 213.491 529.033 215.117C533.305 217.457 537.037 221.658 541.457 223.358C542.548 223.694 543.625 224.119 544.682 224.628C545.696 225.199 546.615 226.066 547.379 227.173C548.144 228.279 548.737 229.602 549.121 231.054C549.505 232.507 549.671 234.057 549.608 235.607C549.546 237.156 549.256 238.67 548.758 240.05L548.73 240.08Z" fill="#444053"/>
<g opacity="0.1">
<path opacity="0.1" d="M477.567 329.661C478.079 327.784 478.298 325.77 478.206 323.761C478.053 324.48 477.763 325.126 477.369 325.627C476.975 326.128 476.491 326.465 475.972 326.601C475.704 326.693 475.431 326.75 475.156 326.771C474.805 328.371 474.25 329.912 473.175 330.412C474.209 330.713 475.274 330.74 476.316 330.492C476.767 330.335 477.192 330.053 477.567 329.661Z" fill="black"/>
<path opacity="0.1" d="M549.236 232.109C549.184 233.691 548.896 235.238 548.393 236.65C548.126 237.45 547.72 238.139 547.212 238.65C545.617 240.13 543.312 238.51 541.64 239.82C540.304 240.87 539.918 243.371 538.829 244.931C537.571 246.781 535.603 247.071 533.811 247.381C532.019 247.691 530.017 248.381 529.068 250.522C528.365 252.152 528.429 254.202 528.176 256.082C528.17 256.279 528.136 256.472 528.074 256.649C528.013 256.826 527.926 256.982 527.819 257.108C527.712 257.233 527.588 257.325 527.455 257.378C527.321 257.43 527.181 257.442 527.044 257.412C523.531 257.762 520.973 256.032 517.684 254.822C516.138 254.262 514.339 254.332 513.159 255.822C512.091 257.202 511.796 259.433 511.824 261.493C511.971 263.536 512.013 265.592 511.95 267.644C511.715 269.855 510.963 271.89 509.816 273.418C508.668 274.946 507.192 275.878 505.626 276.065C505.398 276.112 505.166 276.095 504.943 276.014C504.72 275.933 504.51 275.791 504.326 275.595C504.123 275.278 503.976 274.898 503.897 274.485C501.557 265.123 501.571 254.732 498.732 245.661C498.281 244.363 497.887 243.027 497.552 241.66C497.373 240.811 497.262 239.935 497.221 239.05C496.818 239.118 496.449 239.409 496.195 239.86C495.8 240.821 495.596 241.917 495.605 243.031C495.278 251.045 495.513 259.086 496.308 267.034C495.8 260.345 495.685 253.607 495.964 246.891C495.947 245.776 496.152 244.677 496.554 243.721C496.677 243.493 496.831 243.304 497.008 243.164C497.184 243.025 497.379 242.939 497.58 242.911C497.618 243.795 497.727 244.671 497.903 245.521C498.239 246.889 498.636 248.225 499.091 249.521C501.901 258.603 501.901 268.984 504.248 278.345C504.331 278.758 504.48 279.138 504.684 279.455C504.862 279.668 505.068 279.826 505.291 279.921C505.513 280.015 505.747 280.044 505.977 280.005C507.54 279.809 509.011 278.874 510.157 277.35C511.303 275.826 512.058 273.8 512.302 271.594C512.359 269.539 512.314 267.48 512.168 265.433C512.168 263.373 512.442 261.143 513.51 259.763C514.691 258.243 516.49 258.183 518.029 258.763C521.317 259.963 523.861 261.693 527.389 261.343C527.699 261.361 528.004 261.219 528.246 260.943C528.4 260.678 528.496 260.355 528.52 260.013C528.78 258.132 528.703 256.082 529.412 254.462C530.368 252.272 532.364 251.632 534.156 251.312C535.948 250.992 537.922 250.722 539.18 248.871C540.241 247.301 540.621 244.811 541.991 243.751C543.656 242.441 545.961 244.071 547.563 242.591C548.075 242.067 548.48 241.359 548.737 240.54C549.661 237.927 549.84 234.906 549.236 232.109Z" fill="black"/>
<path opacity="0.1" d="M499.372 289.606C499.294 293.033 498.723 296.399 497.692 299.498C493.75 312.429 486.245 322.271 478.41 331.042C478.079 333.658 477.23 336.087 475.965 338.043C484.763 328.481 493.631 317.89 498.03 303.428C499.064 300.331 499.638 296.964 499.716 293.537C499.699 292.073 499.579 290.616 499.358 289.186C499.365 289.286 499.372 289.446 499.372 289.606Z" fill="black"/>
</g>
<path opacity="0.1" d="M500.25 231.999C499.617 236.14 498.746 241.52 498.093 244.291C498.012 243.713 497.956 243.128 497.924 242.541C497.636 242.6 497.363 242.762 497.13 243.011C497.13 240.1 497.376 235.77 497.587 232.529C497.956 232.453 498.333 232.544 498.663 232.79C498.994 233.036 499.261 233.424 499.428 233.899C499.653 233.259 499.955 232.619 500.25 231.999Z" fill="black"/>
<path d="M499.913 231.999C499.28 236.14 498.409 241.52 497.755 244.291C497.672 243.713 497.615 243.129 497.587 242.541C497.296 242.6 497.021 242.761 496.786 243.011C496.786 240.1 497.032 235.77 497.249 232.529C497.618 232.453 497.993 232.545 498.323 232.791C498.652 233.037 498.918 233.425 499.084 233.899C499.336 233.259 499.653 232.619 499.913 231.999Z" fill="#67647E"/>
<g opacity="0.7">
<path opacity="0.7" d="M643.005 7.54095H759.422V168.701H643.005V7.54095Z" fill="#2E001E"/>
<path opacity="0.7" d="M637.742 -0.0299988V176.232H764.742V-0.0299988H637.742ZM643.033 7.51094H759.451V168.701H643.005L643.033 7.51094Z" fill="#FF2BC2"/>
<path opacity="0.7" d="M729.972 74.0393C728.999 73.4713 727.951 73.2119 726.901 73.2792C720.239 73.2792 715.791 80.5902 715.791 92.7117C715.791 106.573 720.345 112.144 726.269 112.144C727.513 112.197 728.752 111.916 729.923 111.314V74.0393H729.972ZM706.249 93.3218C706.249 75.7695 714.182 62.0578 727.203 62.0578C728.121 62.0296 729.038 62.083 729.951 62.2178V42.6354C729.951 42.4338 730.007 42.2405 730.107 42.0979C730.207 41.9554 730.343 41.8753 730.485 41.8753H739.002C739.423 41.8753 739.529 42.1053 739.529 42.4854V111.314C739.497 113.78 739.586 116.246 739.796 118.695C739.796 119.225 739.796 119.305 739.48 119.525C735.248 122.395 730.619 123.888 725.931 123.896C714.449 123.896 706.256 113.804 706.256 93.3218H706.249ZM688.203 81.1202L703.037 121.985C703.304 122.585 703.143 123.186 702.721 123.186H693.516C693.278 123.228 693.037 123.152 692.834 122.969C692.632 122.787 692.48 122.51 692.405 122.185C689.018 112.244 685.561 101.926 682.033 91.2315H681.928C678.752 101.323 675.259 112.324 671.872 122.235C671.787 122.491 671.652 122.706 671.482 122.854C671.312 123.002 671.115 123.075 670.917 123.065H662.133C661.606 123.065 661.557 122.455 661.817 122.005L676.313 82.3204L662.294 42.9754C662.229 42.8777 662.186 42.7542 662.171 42.6211C662.156 42.4879 662.169 42.3514 662.209 42.2294C662.25 42.1073 662.315 42.0053 662.396 41.9368C662.478 41.8683 662.572 41.8364 662.667 41.8453H671.767C672.294 41.8453 672.561 41.9953 672.716 42.6754C676.053 52.6766 679.44 62.5579 682.617 72.6792H682.722C685.786 62.7379 689.173 52.6766 692.405 42.8554C692.665 42.2453 692.827 41.8553 693.354 41.8553H701.878C702.299 41.8553 702.454 42.3053 702.194 42.9854L688.224 81.1702L688.203 81.1202Z" fill="#FF2BC2"/>
</g>
<g opacity="0.7">
<path opacity="0.7" d="M160.463 72.4391L200.25 183.263L133.381 72.4391H160.463Z" fill="#EA6C00"/>
<path opacity="0.7" d="M240.045 72.4391L200.258 183.263L267.127 72.4391H240.045Z" fill="#EA6C00"/>
<path opacity="0.7" d="M160.463 72.4391H240.031L200.25 183.263L160.463 72.4391Z" fill="#FDAD00"/>
<path opacity="0.7" d="M200.251 11.0214L162.557 16.6921L160.449 72.4391L200.251 11.0214Z" fill="#FDD231"/>
<path opacity="0.7" d="M200.25 11.0214L237.937 16.6921L240.045 72.4391L200.25 11.0214Z" fill="#FDD231"/>
<path opacity="0.7" d="M267.127 72.4391L237.951 16.6921L240.059 72.4391H267.127Z" fill="#FDAD00"/>
<path opacity="0.7" d="M133.381 72.4384L162.557 16.6914L160.449 72.4384H133.381Z" fill="#FDAD00"/>
<path opacity="0.7" d="M200.25 11.0214L160.463 72.4391H240.031L200.25 11.0214Z" fill="#FEEEB7"/>
</g>
</g>
<defs>
<linearGradient id="paint0_linear" x1="35727.3" y1="150762" x2="87438.2" y2="150762" gradientUnits="userSpaceOnUse">
<stop stop-color="#808080" stop-opacity="0.25"/>
<stop offset="0.54" stop-color="#808080" stop-opacity="0.12"/>
<stop offset="1" stop-color="#808080" stop-opacity="0.1"/>
</linearGradient>
<linearGradient id="paint1_linear" x1="-159822" y1="95913.4" x2="-159822" y2="52202" gradientUnits="userSpaceOnUse">
<stop stop-color="#808080" stop-opacity="0.25"/>
<stop offset="0.54" stop-color="#808080" stop-opacity="0.12"/>
<stop offset="1" stop-color="#808080" stop-opacity="0.1"/>
</linearGradient>
<clipPath id="clip0">
<rect width="818" height="556" fill="white"/>
</clipPath>
</defs>
</svg>
