<svg height="474pt" viewBox="-13 0 474 474.00381" width="474pt" xmlns="http://www.w3.org/2000/svg"><path d="m7.6875 403.003906h145.765625l-15.511719 55h-27.46875c-4.417968 0-8 3.582032-8 8 0 4.417969 3.582032 8 8 8h227.066406c4.417969 0 8-3.582031 8-8 0-4.417968-3.582031-8-8-8h-27.46875l-15.511718-55h145.761718c2.082032.003906 4.078126-.839844 5.527344-2.335937 1.449219-1.496094 2.226563-3.515625 2.160156-5.59375v-304.1875c.066407-2.078125-.714843-4.089844-2.167968-5.578125-1.449219-1.488282-3.441406-2.320313-5.519532-2.304688h-74.3125v-35.601562c-.015624-4.132813-3.167968-7.578125-7.285156-7.960938l.199219-21.789062c.019531-2.144532-.824219-4.210938-2.34375-5.730469-1.523437-1.511719-3.582031-2.355469-5.726563-2.347656l-33.121093.253906c-2.089844.023437-4.082031.882813-5.53125 2.386719-1.453125 1.503906-2.242188 3.523437-2.195313 5.613281v21.605469c-5 .339844-8 3.773437-8 7.964844v17.125l-5.507812-.074219c-4.511719-.074219-8.863282 1.65625-12.101563 4.796875-2.800781 2.738281-4.386719 6.488281-4.386719 10.40625v3.351562h-20.1875l17.796876-73.453125c.582031-2.332031.03125-4.796875-1.484376-6.660156-1.535156-1.886719-3.859374-2.953125-6.292968-2.88671875h-93.117188c-2.410156-.07421875-4.714844.96093775-6.257812 2.81249975-1.515625 1.890625-2.085938 4.367188-1.542969 6.730469l16.773437 73.457031h-29.6875v-1.332031c-.074218-1.160156-.394531-2.289063-.933593-3.320313l-28.867188-63.085937c-1.320312-2.851563-4.175781-4.679687-7.320312-4.679687s-6 1.828124-7.320313 4.679687l-28.796875 63.085937c-.488281 1.039063-.75 2.171876-.765625 3.320313v1.332031h-74.316406c-2.074219-.015625-4.066406.816406-5.519531 2.304688-1.449219 1.488281-2.230469 3.5-2.1601565 5.578125v304.1875c-.0703125 2.078125.7070315 4.097656 2.1562495 5.59375 1.449219 1.496093 3.441407 2.339843 5.523438 2.335937zm285.765625 55h-138.898437l15.511718-55h107.871094zm138.554687-359v218h-66v-218zm-114-44h32v262h-32zm25.035157-29.570312-.347657 13.570312h-16.6875v-13.242187zm-47.035157 55.050781c0-.023437.144532-.042969.277344-.039063l5.722656.078126v2.480468h-6zm-8 64.484375c4.417969 0 8-3.582031 8-8v-37.964844h6v218h-49.015624l5.464843-218h21.550781v37.964844c0 4.417969 3.578126 8 8 8zm-85.132812-50.964844h39.691406l-1.371094 55h-36.949218zm5.574219 223-3.800781-152h36.148437l-3.800781 152zm51.21875-301-15.019531 61.757813 4.222656-29.675781c.441406-2.839844-.671875-5.699219-2.921875-7.492188s-5.285157-2.242188-7.957031-1.175781c-2.671876 1.066406-4.566407 3.484375-4.960938 6.332031l-3.023438 21.152344v-19.898438c0-4.417968-3.582031-8-8-8-4.421874 0-8 3.582032-8 8v13.828125l-2.160156-15.105469c-.625-4.375-4.675781-7.414062-9.050781-6.789062s-7.414063 4.675781-6.789063 9.050781l3.121094 22.046875-12.375-54.03125zm-72.683594 83 5.460937 218h-36.4375v-218zm-88.976563-9h42v227h-42zm20.816407-51.800781 16.320312 35.800781h-32.636719zm-102.816407 60.800781h66v218h-66zm416 234v54h-416v-54zm0 0"/></svg>