<svg width="87" height="91" viewBox="0 0 87 91" fill="none" xmlns="http://www.w3.org/2000/svg">
<path d="M82.7869 6.24408H4.21312C1.886 6.24408 0 8.21701 0 10.6509V62.2107C0 64.6446 1.886 66.6175 4.21312 66.6175H33.5992V76.6034H22.1641C20.0152 76.6034 18.267 78.432 18.267 80.6797C18.267 82.9274 20.0152 84.756 22.1641 84.756H64.8359C66.9848 84.756 68.733 82.9274 68.733 80.6797C68.733 78.432 66.9848 76.6034 64.8359 76.6034H53.4008V66.6175H82.7869C85.114 66.6175 87 64.6446 87 62.2107V10.6509C87 8.21701 85.114 6.24408 82.7869 6.24408ZM80.6803 60.0073H6.31967V12.8543H80.6803V60.0073Z" fill="black"/>
<path d="M19.9262 38.9205L33.2152 45.3844C33.5588 45.5508 33.9245 45.6352 34.3026 45.6352C34.7951 45.6352 35.275 45.4889 35.6923 45.2112C36.4397 44.7117 36.8858 43.8606 36.8858 42.934V42.8631C36.8858 41.8162 36.2992 40.8547 35.391 40.4131L27.0796 36.3742L35.3912 32.3345C36.2992 31.8929 36.8858 30.9312 36.8858 29.8848V29.8145C36.8858 28.8866 36.4395 28.0354 35.6925 27.5375C35.2792 27.2612 34.7978 27.1153 34.3009 27.1153C33.9263 27.1153 33.5503 27.2014 33.2139 27.3649L19.9259 33.828C19.0184 34.2698 18.4322 35.2313 18.4322 36.2775V36.471C18.432 37.5158 19.018 38.4772 19.9262 38.9205Z" fill="black"/>
<path d="M37.0042 52.0863C37.489 52.7801 38.2686 53.1944 39.0899 53.1944H39.1563C40.2837 53.1944 41.2717 52.4395 41.6151 51.3179L50.3693 22.9468C50.6204 22.1278 50.481 21.2242 49.9962 20.5288C49.5115 19.8349 48.7319 19.4205 47.9105 19.4205H47.8444C46.7165 19.4205 45.7277 20.1754 45.3841 21.2969L36.6289 49.6704C36.3799 50.4901 36.5202 51.3928 37.0042 52.0863Z" fill="black"/>
<path d="M50.1142 29.8844C50.1142 30.9302 50.7003 31.8917 51.6088 32.3351L59.9203 36.3739L51.6088 40.4128C50.7007 40.8543 50.114 41.8159 50.114 42.8627V42.9337C50.114 43.8602 50.56 44.7114 51.3082 45.2111C51.7241 45.4883 52.2043 45.6349 52.6975 45.6349C53.075 45.6349 53.4405 45.5505 53.7864 45.3832L67.0747 38.9195C67.982 38.4769 68.5681 37.5155 68.5681 36.4704V36.277C68.5681 35.2308 67.9818 34.2692 67.0739 33.8274L53.7857 27.364C53.4506 27.2011 53.0752 27.1147 52.7004 27.1147C52.2037 27.1147 51.7222 27.2606 51.3093 27.536C50.5606 28.0349 50.1142 28.8861 50.1142 29.8139V29.8844Z" fill="black"/>
</svg>
