<svg width="719" height="573" viewBox="0 0 719 573" fill="none" xmlns="http://www.w3.org/2000/svg">
<g clip-path="url(#clip0)">
<path d="M347.86 506.611C193.104 494.249 8.55088 368.376 17.9468 238.77C27.3426 109.164 206.084 -11.4879 360.84 0.874567C515.596 13.237 604.678 255.449 595.282 385.055C585.886 514.661 502.615 518.973 347.86 506.611Z" fill="#F2F2F2"/>
<path d="M360.839 527.428C539.253 527.428 683.886 518.127 683.886 506.653C683.886 495.179 539.253 485.877 360.839 485.877C182.424 485.877 37.7912 495.179 37.7912 506.653C37.7912 518.127 182.424 527.428 360.839 527.428Z" fill="#3F3D56"/>
<path opacity="0.1" d="M360.839 520.056C512.808 520.056 636.004 513.905 636.004 506.318C636.004 498.73 512.808 492.579 360.839 492.579C208.869 492.579 85.6737 498.73 85.6737 506.318C85.6737 513.905 208.869 520.056 360.839 520.056Z" fill="black"/>
<path d="M135.472 573C210.29 573 270.943 567.449 270.943 560.602C270.943 553.754 210.29 548.203 135.472 548.203C60.6527 548.203 0 553.754 0 560.602C0 567.449 60.6527 573 135.472 573Z" fill="#3F3D56"/>
<path opacity="0.1" d="M135.472 568.601C199.201 568.601 250.863 564.93 250.863 560.402C250.863 555.874 199.201 552.203 135.472 552.203C71.7424 552.203 20.0798 555.874 20.0798 560.402C20.0798 564.93 71.7424 568.601 135.472 568.601Z" fill="black"/>
<path d="M605.359 108.568H125.257V503.972H605.359V108.568Z" fill="#3F3D56"/>
<path d="M359.846 162.604H241.405C241.216 162.605 241.029 162.566 240.854 162.49C240.679 162.415 240.52 162.303 240.386 162.163C240.253 162.023 240.147 161.857 240.074 161.673C240.002 161.49 239.964 161.294 239.964 161.095C239.964 160.897 240.002 160.7 240.074 160.517C240.147 160.334 240.253 160.167 240.386 160.027C240.52 159.887 240.679 159.776 240.854 159.7C241.029 159.625 241.216 159.586 241.405 159.586H359.846C360.226 159.587 360.591 159.747 360.86 160.029C361.129 160.312 361.28 160.696 361.28 161.095C361.28 161.495 361.129 161.878 360.86 162.161C360.591 162.444 360.226 162.603 359.846 162.604V162.604Z" fill="#F2F2F2"/>
<path d="M489.498 179.201H303.213C302.831 179.201 302.466 179.043 302.196 178.76C301.927 178.477 301.775 178.093 301.775 177.693C301.775 177.292 301.927 176.909 302.196 176.626C302.466 176.343 302.831 176.184 303.213 176.184H489.498C489.687 176.184 489.874 176.223 490.048 176.299C490.222 176.374 490.381 176.486 490.514 176.626C490.648 176.766 490.754 176.932 490.826 177.115C490.898 177.298 490.935 177.494 490.935 177.693C490.935 177.891 490.898 178.087 490.826 178.27C490.754 178.453 490.648 178.619 490.514 178.76C490.381 178.9 490.222 179.011 490.048 179.087C489.874 179.162 489.687 179.201 489.498 179.201V179.201Z" fill="#F2F2F2"/>
<path d="M360.42 195.799H241.98C241.599 195.799 241.233 195.64 240.963 195.357C240.694 195.074 240.542 194.69 240.542 194.29C240.542 193.89 240.694 193.506 240.963 193.223C241.233 192.94 241.599 192.781 241.98 192.781H360.42C360.802 192.781 361.167 192.94 361.437 193.223C361.706 193.506 361.858 193.89 361.858 194.29C361.858 194.69 361.706 195.074 361.437 195.357C361.167 195.64 360.802 195.799 360.42 195.799V195.799Z" fill="#F2F2F2"/>
<path d="M489.498 196.101H371.057C370.676 196.101 370.31 195.942 370.041 195.659C369.771 195.376 369.62 194.992 369.62 194.592C369.62 194.192 369.771 193.808 370.041 193.525C370.31 193.242 370.676 193.083 371.057 193.083H489.498C489.879 193.083 490.245 193.242 490.514 193.525C490.784 193.808 490.935 194.192 490.935 194.592C490.935 194.992 490.784 195.376 490.514 195.659C490.245 195.942 489.879 196.101 489.498 196.101V196.101Z" fill="#F2F2F2"/>
<path d="M360.708 212.396H242.267C241.886 212.396 241.52 212.237 241.251 211.954C240.981 211.671 240.83 211.288 240.83 210.887C240.83 210.487 240.981 210.103 241.251 209.82C241.52 209.537 241.886 209.379 242.267 209.379H360.708C361.089 209.379 361.455 209.537 361.724 209.82C361.994 210.103 362.145 210.487 362.145 210.887C362.145 211.288 361.994 211.671 361.724 211.954C361.455 212.237 361.089 212.396 360.708 212.396V212.396Z" fill="#F2F2F2"/>
<path d="M360.995 228.994H242.555C242.174 228.994 241.808 228.835 241.538 228.552C241.269 228.269 241.117 227.885 241.117 227.485C241.117 227.085 241.269 226.701 241.538 226.418C241.808 226.135 242.174 225.976 242.555 225.976H360.995C361.377 225.976 361.742 226.135 362.012 226.418C362.281 226.701 362.433 227.085 362.433 227.485C362.433 227.885 362.281 228.269 362.012 228.552C361.742 228.835 361.377 228.994 360.995 228.994V228.994Z" fill="#F2F2F2"/>
<path d="M414.754 162.906H380.831C380.45 162.906 380.085 162.747 379.815 162.464C379.546 162.181 379.394 161.797 379.394 161.397C379.394 160.997 379.546 160.613 379.815 160.33C380.085 160.047 380.45 159.888 380.831 159.888H414.754C415.135 159.888 415.501 160.047 415.77 160.33C416.04 160.613 416.191 160.997 416.191 161.397C416.191 161.797 416.04 162.181 415.77 162.464C415.501 162.747 415.135 162.906 414.754 162.906V162.906Z" fill="#F2F2F2"/>
<path d="M414.754 212.396H380.831C380.45 212.396 380.085 212.237 379.815 211.954C379.546 211.671 379.394 211.288 379.394 210.887C379.394 210.487 379.546 210.103 379.815 209.82C380.085 209.537 380.45 209.379 380.831 209.379H414.754C415.135 209.379 415.501 209.537 415.77 209.82C416.04 210.103 416.191 210.487 416.191 210.887C416.191 211.288 416.04 211.671 415.77 211.954C415.501 212.237 415.135 212.396 414.754 212.396V212.396Z" fill="#F2F2F2"/>
<path d="M414.754 228.692H380.831C380.642 228.692 380.455 228.654 380.28 228.578C380.106 228.502 379.947 228.391 379.813 228.251C379.679 228.111 379.573 227.944 379.501 227.761C379.428 227.578 379.391 227.381 379.391 227.183C379.391 226.985 379.428 226.788 379.501 226.605C379.573 226.422 379.679 226.255 379.813 226.115C379.947 225.975 380.106 225.864 380.28 225.788C380.455 225.712 380.642 225.674 380.831 225.674H414.754C414.943 225.674 415.13 225.712 415.305 225.788C415.48 225.864 415.638 225.975 415.772 226.115C415.906 226.255 416.012 226.422 416.085 226.605C416.157 226.788 416.194 226.985 416.194 227.183C416.194 227.381 416.157 227.578 416.085 227.761C416.012 227.944 415.906 228.111 415.772 228.251C415.638 228.391 415.48 228.502 415.305 228.578C415.13 228.654 414.943 228.692 414.754 228.692V228.692Z" fill="#F2F2F2"/>
<path d="M471.674 228.692H437.752C437.371 228.691 437.006 228.532 436.738 228.249C436.469 227.966 436.318 227.583 436.318 227.183C436.318 226.783 436.469 226.4 436.738 226.117C437.006 225.834 437.371 225.675 437.752 225.674H471.674C471.863 225.674 472.051 225.712 472.225 225.788C472.4 225.864 472.559 225.975 472.693 226.115C472.826 226.255 472.933 226.422 473.005 226.605C473.077 226.788 473.115 226.985 473.115 227.183C473.115 227.381 473.077 227.578 473.005 227.761C472.933 227.944 472.826 228.111 472.693 228.251C472.559 228.391 472.4 228.502 472.225 228.578C472.051 228.654 471.863 228.692 471.674 228.692V228.692Z" fill="#F2F2F2"/>
<path d="M275.04 179.201H241.117C240.736 179.201 240.371 179.043 240.101 178.76C239.831 178.477 239.68 178.093 239.68 177.693C239.68 177.292 239.831 176.909 240.101 176.626C240.371 176.343 240.736 176.184 241.117 176.184H275.04C275.421 176.184 275.787 176.343 276.056 176.626C276.326 176.909 276.477 177.292 276.477 177.693C276.477 178.093 276.326 178.477 276.056 178.76C275.787 179.043 275.421 179.201 275.04 179.201V179.201Z" fill="#F2F2F2"/>
<path d="M359.989 407.038H241.549C241.167 407.038 240.802 406.879 240.532 406.596C240.263 406.313 240.111 405.929 240.111 405.529C240.111 405.129 240.263 404.745 240.532 404.462C240.802 404.179 241.167 404.02 241.549 404.02H359.989C360.371 404.02 360.736 404.179 361.006 404.462C361.275 404.745 361.427 405.129 361.427 405.529C361.427 405.929 361.275 406.313 361.006 406.596C360.736 406.879 360.371 407.038 359.989 407.038Z" fill="#F2F2F2"/>
<path d="M359.414 440.233H240.974C240.592 440.233 240.227 440.074 239.957 439.791C239.688 439.508 239.536 439.124 239.536 438.724C239.536 438.324 239.688 437.94 239.957 437.657C240.227 437.374 240.592 437.215 240.974 437.215H359.414C359.796 437.215 360.161 437.374 360.431 437.657C360.7 437.94 360.852 438.324 360.852 438.724C360.852 439.124 360.7 439.508 360.431 439.791C360.161 440.074 359.796 440.233 359.414 440.233Z" fill="#F2F2F2"/>
<path d="M359.702 456.83H241.261C241.072 456.831 240.885 456.792 240.71 456.716C240.535 456.641 240.377 456.53 240.243 456.389C240.109 456.249 240.003 456.083 239.93 455.9C239.858 455.716 239.821 455.52 239.821 455.321C239.821 455.123 239.858 454.927 239.93 454.743C240.003 454.56 240.109 454.394 240.243 454.253C240.377 454.113 240.535 454.002 240.71 453.927C240.885 453.851 241.072 453.812 241.261 453.813H359.702C359.891 453.812 360.078 453.851 360.253 453.927C360.428 454.002 360.586 454.113 360.72 454.253C360.854 454.394 360.96 454.56 361.033 454.743C361.105 454.927 361.142 455.123 361.142 455.321C361.142 455.52 361.105 455.716 361.033 455.9C360.96 456.083 360.854 456.249 360.72 456.389C360.586 456.53 360.428 456.641 360.253 456.716C360.078 456.792 359.891 456.831 359.702 456.83V456.83Z" fill="#F2F2F2"/>
<path d="M410.298 440.535H376.376C375.994 440.535 375.629 440.376 375.359 440.093C375.09 439.81 374.938 439.426 374.938 439.026C374.938 438.626 375.09 438.242 375.359 437.959C375.629 437.676 375.994 437.517 376.376 437.517H410.298C410.679 437.517 411.045 437.676 411.314 437.959C411.584 438.242 411.735 438.626 411.735 439.026C411.735 439.426 411.584 439.81 411.314 440.093C411.045 440.376 410.679 440.535 410.298 440.535Z" fill="#F2F2F2"/>
<path d="M410.298 456.83H376.376C375.994 456.83 375.629 456.671 375.359 456.388C375.09 456.105 374.938 455.722 374.938 455.321C374.938 454.921 375.09 454.537 375.359 454.254C375.629 453.972 375.994 453.813 376.376 453.813H410.298C410.679 453.813 411.045 453.972 411.314 454.254C411.584 454.537 411.735 454.921 411.735 455.321C411.735 455.722 411.584 456.105 411.314 456.388C411.045 456.671 410.679 456.83 410.298 456.83V456.83Z" fill="#F2F2F2"/>
<path d="M467.218 440.535H433.296C432.915 440.535 432.549 440.376 432.28 440.093C432.01 439.81 431.859 439.426 431.859 439.026C431.859 438.626 432.01 438.242 432.28 437.959C432.549 437.676 432.915 437.517 433.296 437.517H467.218C467.6 437.517 467.965 437.676 468.235 437.959C468.504 438.242 468.656 438.626 468.656 439.026C468.656 439.426 468.504 439.81 468.235 440.093C467.965 440.376 467.6 440.535 467.218 440.535V440.535Z" fill="#F2F2F2"/>
<path d="M489.642 423.635H303.356C302.975 423.635 302.609 423.477 302.34 423.194C302.07 422.911 301.919 422.527 301.919 422.127C301.919 421.726 302.07 421.343 302.34 421.06C302.609 420.777 302.975 420.618 303.356 420.618H489.642C490.023 420.618 490.389 420.777 490.658 421.06C490.928 421.343 491.079 421.726 491.079 422.127C491.079 422.527 490.928 422.911 490.658 423.194C490.389 423.477 490.023 423.635 489.642 423.635V423.635Z" fill="#F2F2F2"/>
<path d="M275.183 423.635H241.261C240.88 423.635 240.514 423.477 240.245 423.194C239.975 422.911 239.824 422.527 239.824 422.127C239.824 421.726 239.975 421.343 240.245 421.06C240.514 420.777 240.88 420.618 241.261 420.618H275.183C275.565 420.618 275.93 420.777 276.2 421.06C276.469 421.343 276.621 421.726 276.621 422.127C276.621 422.527 276.469 422.911 276.2 423.194C275.93 423.477 275.565 423.635 275.183 423.635V423.635Z" fill="#F2F2F2"/>
<path d="M489.642 473.729H303.356C303.167 473.73 302.98 473.691 302.805 473.615C302.63 473.54 302.472 473.429 302.338 473.289C302.204 473.148 302.098 472.982 302.026 472.799C301.953 472.615 301.916 472.419 301.916 472.221C301.916 472.022 301.953 471.826 302.026 471.642C302.098 471.459 302.204 471.293 302.338 471.153C302.472 471.012 302.63 470.901 302.805 470.826C302.98 470.75 303.167 470.711 303.356 470.712H489.642C490.023 470.712 490.389 470.871 490.658 471.154C490.928 471.437 491.079 471.82 491.079 472.221C491.079 472.621 490.928 473.005 490.658 473.287C490.389 473.57 490.023 473.729 489.642 473.729V473.729Z" fill="#F2F2F2"/>
<path d="M275.183 473.729H241.261C241.072 473.73 240.885 473.691 240.71 473.615C240.535 473.54 240.377 473.429 240.243 473.289C240.109 473.148 240.003 472.982 239.93 472.799C239.858 472.615 239.821 472.419 239.821 472.221C239.821 472.022 239.858 471.826 239.93 471.642C240.003 471.459 240.109 471.293 240.243 471.153C240.377 471.012 240.535 470.901 240.71 470.826C240.885 470.75 241.072 470.711 241.261 470.712H275.183C275.372 470.711 275.56 470.75 275.734 470.826C275.909 470.901 276.068 471.012 276.202 471.153C276.336 471.293 276.442 471.459 276.514 471.642C276.587 471.826 276.624 472.022 276.624 472.221C276.624 472.419 276.587 472.615 276.514 472.799C276.442 472.982 276.336 473.148 276.202 473.289C276.068 473.429 275.909 473.54 275.734 473.615C275.56 473.691 275.372 473.73 275.183 473.729Z" fill="#F2F2F2"/>
<path d="M331.385 268.827L285.389 316.507L331.385 364.187L341.734 353.323L306.95 316.809L342.022 279.993L331.385 268.827Z" fill="#6C63FF"/>
<path d="M399.23 268.827L445.226 316.507L399.23 364.187L388.881 353.323L423.666 316.809L388.594 279.993L399.23 268.827Z" fill="#6C63FF"/>
<path d="M138.025 124.653C141.199 124.653 143.771 121.952 143.771 118.621C143.771 115.29 141.199 112.589 138.025 112.589C134.852 112.589 132.279 115.29 132.279 118.621C132.279 121.952 134.852 124.653 138.025 124.653Z" fill="#6C63FF"/>
<path d="M153.348 124.653C156.521 124.653 159.094 121.952 159.094 118.621C159.094 115.29 156.521 112.589 153.348 112.589C150.174 112.589 147.602 115.29 147.602 118.621C147.602 121.952 150.174 124.653 153.348 124.653Z" fill="#6C63FF"/>
<path d="M168.67 124.653C171.843 124.653 174.416 121.952 174.416 118.621C174.416 115.29 171.843 112.589 168.67 112.589C165.497 112.589 162.924 115.29 162.924 118.621C162.924 121.952 165.497 124.653 168.67 124.653Z" fill="#6C63FF"/>
<path opacity="0.1" d="M605.359 128.674H125.257V130.684H605.359V128.674Z" fill="black"/>
<path d="M719 407.1C719 449.838 694.796 464.761 664.94 464.761C635.083 464.761 610.879 449.838 610.879 407.1C610.879 364.363 664.94 309.993 664.94 309.993C664.94 309.993 719 364.363 719 407.1Z" fill="#F2F2F2"/>
<path d="M662.971 458.223L663.524 422.455L686.566 378.205L663.611 416.844L663.86 400.762L679.74 368.748L663.926 396.506L664.373 367.581L681.378 342.093L664.444 363.032L664.723 309.994L662.966 380.207L663.11 377.311L645.821 349.531L662.833 382.871L661.222 415.176L661.174 414.318L641.243 385.084L661.113 417.347L660.912 421.387L660.876 421.448L660.893 421.78L656.805 503.739H662.266L662.921 461.406L682.744 429.221L662.971 458.223Z" fill="#3F3D56"/>
<path d="M78.2858 503.363C76.6271 504.332 74.8774 505.119 73.0646 505.71C69.8221 506.64 66.3565 506.299 63.0813 507.093C61.7404 507.418 60.281 508.097 59.8545 509.471C59.5417 510.478 59.882 511.566 60.2079 512.569C63.8269 523.708 66.0081 535.534 71.7796 545.623C74.2051 549.86 77.2157 553.697 80.713 557.007C82.0251 558.249 83.5119 559.463 85.2685 559.658C86.078 559.748 86.8958 559.612 87.6392 559.264C88.3826 558.916 89.0254 558.368 89.5027 557.676C89.9801 556.984 90.275 556.171 90.3577 555.321C90.4405 554.471 90.3082 553.613 89.9741 552.834C89.4566 551.627 88.4947 550.692 87.8743 549.54C87.2016 548.072 86.8071 546.481 86.7127 544.855C86.1425 540.091 85.5932 535.112 87.1656 530.603C88.2202 527.579 90.1548 525.001 91.7664 522.261C93.378 519.521 94.7171 516.383 94.3585 513.185C94.1137 511.002 93.0995 509.005 92.0282 507.117C90.9547 505.225 88.833 500.141 86.6763 499.51C84.4375 498.855 80.2382 502.313 78.2858 503.363Z" fill="#2F2E41"/>
<path d="M137.299 541.837C137.333 542.915 137.19 543.99 136.876 545.017C136.201 546.889 134.526 548.171 133.661 549.954C132.457 552.434 133.003 555.432 133.8 558.086C134.3 559.751 134.955 561.482 136.298 562.511C137.446 563.258 138.751 563.697 140.099 563.79C151.614 565.462 163.311 564.503 174.931 564.853C177.049 564.917 179.291 564.995 181.14 563.908C182.989 562.822 184.132 560.091 182.874 558.3C181.745 556.693 179.513 556.708 177.612 556.613C172.663 556.349 167.951 554.311 164.261 550.84C163.533 550.187 162.902 549.425 162.388 548.577C161.993 547.825 161.665 547.035 161.408 546.22C159.779 541.588 157.841 537.082 155.609 532.737C154.984 531.52 154.277 530.254 153.115 529.603C152.265 529.197 151.343 528.985 150.409 528.982C147.513 528.785 140.013 527.751 137.774 530.115C135.704 532.299 137.345 539.063 137.299 541.837Z" fill="#2F2E41"/>
<path d="M155.121 271.887C165.337 271.887 173.619 263.193 173.619 252.469C173.619 241.744 165.337 233.05 155.121 233.05C144.904 233.05 136.622 241.744 136.622 252.469C136.622 263.193 144.904 271.887 155.121 271.887Z" fill="#FBBEBE"/>
<path d="M138.416 268.503C137.316 271.595 135.449 274.499 132.734 276.163L158.319 281.642C157.391 277.722 157.269 273.639 157.96 269.666C158.214 268.704 158.266 267.696 158.113 266.711C157.632 264.763 155.543 263.825 153.673 263.378C149.003 262.26 144.874 261.661 140.535 259.496C139.208 261.88 139.394 265.755 138.416 268.503Z" fill="#FBBEBE"/>
<path d="M132.52 268.892C135.272 267.585 138.271 266.949 141.291 267.032C144.311 267.115 147.274 267.914 149.958 269.371C153.238 271.185 155.954 273.924 158.622 276.626C161.082 279.117 163.706 281.969 163.88 285.552C163.965 287.288 163.449 288.985 163.188 290.702C162.72 294.251 163.315 297.866 164.891 301.044C166.468 304.223 168.947 306.808 171.986 308.441C174.018 311.995 174.438 316.301 174.469 320.446C174.587 336.153 169.866 352.052 173.237 367.356C174.028 370.948 175.255 374.429 175.939 378.046C176.824 382.731 176.78 387.549 177.243 392.3C177.746 397.446 178.842 402.508 180.508 407.376C179.394 409.235 177.077 409.948 174.99 409.797C172.904 409.647 170.952 408.696 169.09 407.696C160.073 402.852 151.815 396.465 142.476 392.349C136.297 389.626 129.715 387.929 123.721 384.784C117.727 381.639 112.153 376.647 110.32 369.881C109.528 366.955 109.479 363.872 109.436 360.831C109.253 348.022 109.084 335.072 111.74 322.568C114.083 311.541 118.598 300.993 119.583 289.743C119.904 286.081 119.911 282.16 121.86 279.105C124.615 274.786 130.563 273.667 132.52 268.892Z" fill="#2F2E41"/>
<path d="M144.6 252.743C145.69 251.25 147.792 251.047 149.534 251.488C151.275 251.93 152.881 252.872 154.639 253.23C155.039 253.349 155.458 253.379 155.87 253.319C156.281 253.258 156.676 253.108 157.029 252.878C157.644 252.242 158.012 251.389 158.061 250.485C158.677 246.637 158.821 242.723 158.489 238.837C158.397 238.292 158.432 237.731 158.59 237.203C159.026 236.102 160.354 235.84 161.439 235.486C163.229 234.851 164.766 233.608 165.808 231.954C166.85 230.299 167.338 228.328 167.193 226.35C167.166 225.401 166.786 224.502 166.135 223.843C165.385 223.201 164.335 223.162 163.367 223.154C158.395 223.112 153.422 223.113 148.449 223.158C146.609 223.174 144.676 223.222 143.08 224.185C141.901 224.897 141.023 226.043 139.964 226.94C137.202 229.28 133.467 229.756 130.106 230.955C128.466 231.445 126.976 232.378 125.786 233.66C124.668 235 124.131 236.992 124.833 238.614C125.193 239.29 125.595 239.94 126.037 240.56C128.019 243.887 126.7 248.202 126.996 252.114C127.365 256.998 134.252 264.922 138.921 266.078C146.459 267.944 142.104 255.949 144.6 252.743Z" fill="#2F2E41"/>
<path d="M134.157 466.9C134.633 470.466 135.243 474.045 135.08 477.642C134.852 482.664 133.126 487.503 132.807 492.519C132.569 496.266 133.12 500.054 132.625 503.773C132.307 506.154 131.567 508.449 131.109 510.805C130.384 514.645 130.405 518.598 131.17 522.429C131.935 526.259 133.428 529.889 135.561 533.099C135.875 533.648 136.32 534.102 136.853 534.413C137.364 534.612 137.911 534.688 138.454 534.636C143.838 534.521 149.208 534.008 154.524 533.103C154.913 533.086 155.282 532.915 155.556 532.625C155.675 532.432 155.752 532.213 155.78 531.985C156.765 526.667 154.518 521.334 153.946 515.949C153.336 510.199 154.65 504.437 155.955 498.816C156.546 496.043 157.285 493.308 158.168 490.622C158.799 488.814 159.561 487.056 160.107 485.218C160.881 482.331 161.353 479.364 161.513 476.37C161.892 471.645 162.093 466.909 162.116 462.163C162.245 457.665 161.888 453.166 161.053 448.753C159.854 443.165 157.399 437.976 154.965 432.849C153.664 433.177 152.442 433.786 151.378 434.639C148.242 436.771 144.967 438.67 141.578 440.322C139.301 441.433 134.861 442.221 133.416 444.535C131.991 446.816 132.91 451.472 133.019 453.988C133.206 458.307 133.585 462.611 134.157 466.9Z" fill="#2F2E41"/>
<path opacity="0.1" d="M134.157 466.9C134.633 470.466 135.243 474.045 135.08 477.642C134.852 482.664 133.126 487.503 132.807 492.519C132.569 496.266 133.12 500.054 132.625 503.773C132.307 506.154 131.567 508.449 131.109 510.805C130.384 514.645 130.405 518.598 131.17 522.429C131.935 526.259 133.428 529.889 135.561 533.099C135.875 533.648 136.32 534.102 136.853 534.413C137.364 534.612 137.911 534.688 138.454 534.636C143.838 534.521 149.208 534.008 154.524 533.103C154.913 533.086 155.282 532.915 155.556 532.625C155.675 532.432 155.752 532.213 155.78 531.985C156.765 526.667 154.518 521.334 153.946 515.949C153.336 510.199 154.65 504.437 155.955 498.816C156.546 496.043 157.285 493.308 158.168 490.622C158.799 488.814 159.561 487.056 160.107 485.218C160.881 482.331 161.353 479.364 161.513 476.37C161.892 471.645 162.093 466.909 162.116 462.163C162.245 457.665 161.888 453.166 161.053 448.753C159.854 443.165 157.399 437.976 154.965 432.849C153.664 433.177 152.442 433.786 151.378 434.639C148.242 436.771 144.967 438.67 141.578 440.322C139.301 441.433 134.861 442.221 133.416 444.535C131.991 446.816 132.91 451.472 133.019 453.988C133.206 458.307 133.585 462.611 134.157 466.9Z" fill="black"/>
<path d="M109.147 390.724C106.691 397.667 110.302 405.169 113.439 411.803C121.168 428.146 126.535 445.585 131.873 462.949C132.273 464.249 132.673 465.668 132.227 466.953C131.842 467.865 131.217 468.643 130.426 469.196C126.745 472.13 122.058 473.176 117.673 474.711C113.435 476.196 109.377 478.193 105.579 480.662C102.402 482.729 99.4255 485.115 96.4549 487.496L86.9984 495.078C86.3862 495.512 85.8512 496.056 85.4178 496.684C84.5057 498.186 84.8793 500.147 85.3334 501.863C86.536 506.407 88.0843 510.843 89.9634 515.127C90.2726 516.066 90.8613 516.876 91.6425 517.437C93.1185 518.27 94.9239 517.166 96.051 515.864C97.1781 514.562 98.153 512.943 99.7418 512.384C101.329 511.826 103.075 512.502 104.733 512.258C107.413 511.863 109.193 509.27 111.125 507.28C119.02 499.15 132.2 499.74 140.884 492.552C142.14 491.373 143.469 490.283 144.862 489.29C146.33 488.379 147.995 487.879 149.519 487.074C154.151 484.625 157.064 479.562 158.624 474.369C160.184 469.176 160.629 463.695 161.751 458.378C162.33 455.63 163.093 452.911 163.351 450.11C163.517 447.504 163.463 444.887 163.189 442.291L160.056 401.601C159.801 398.288 159.545 394.972 159.05 391.689C149.744 392.038 140.444 392.431 131.133 392.547C123.723 392.639 116.178 393.182 109.147 390.724Z" fill="#2F2E41"/>
<path d="M105.726 400.243C106.989 402.374 110.061 402.33 112.177 401.162C114.293 399.993 115.937 398.03 118.058 396.872C120.907 395.315 124.28 395.374 127.491 395.469C132.575 395.619 137.722 395.78 142.614 397.243C147.673 398.755 152.599 401.668 157.83 401.087C158.74 400.986 159.736 400.712 160.231 399.904C160.522 399.318 160.658 398.662 160.627 398.003L160.798 393.205C160.903 392.376 160.776 391.532 160.434 390.776C159.995 390.147 159.393 389.663 158.7 389.382C151.254 385.598 142.762 384.894 134.494 384.596C130.291 384.445 126.086 384.383 121.88 384.41C118.311 384.433 114.025 383.891 110.555 384.892C105.898 386.235 103.363 396.254 105.726 400.243Z" fill="#2F2E41"/>
<path d="M152.483 274.588C142.726 274.497 133.885 267.737 124.129 267.572C122.95 267.487 121.769 267.701 120.686 268.196C119.327 268.915 118.433 270.305 117.4 271.479C114.516 274.758 110.338 276.509 107.375 279.709C104.596 282.71 103.051 287.181 104.148 291.205C105.245 295.228 109.385 298.314 113.264 297.347C114.827 292.037 118.052 287.437 122.417 284.292C124.689 282.763 127.082 281.444 129.571 280.35C133.956 278.265 138.859 276.14 143.437 277.703C145.125 278.372 146.717 279.283 148.167 280.411L155.799 285.792C154.909 282.11 154.11 277.981 152.483 274.588Z" fill="#6C63FF"/>
<path d="M112.14 293.787C110.845 295.484 112.711 297.942 112.425 300.096C112.236 301.527 111.114 302.619 110.647 303.978C110.163 305.386 110.42 306.945 110.236 308.429C110.052 309.508 109.779 310.569 109.422 311.599C108.6 314.676 108.026 317.82 107.707 320.999L105.999 334.386C105.703 336.4 105.522 338.432 105.459 340.469C105.545 341.992 105.448 343.52 105.17 345.018C104.792 346.481 103.955 347.761 103.392 349.156C102.828 350.552 102.567 352.241 103.328 353.529C100.78 355.757 100.022 360.133 101.804 363.069C102.143 363.526 102.409 364.039 102.589 364.587C102.688 365.353 102.567 366.132 102.243 366.826L100.517 371.655C100.075 372.892 99.9349 374.774 101.164 375.056C100.146 376.166 99.3529 377.48 98.8326 378.921C98.5803 379.644 98.5049 380.422 98.6133 381.184C98.7218 381.945 99.0107 382.666 99.4535 383.281C99.8825 383.676 100.248 384.141 100.535 384.659C100.704 385.38 100.661 386.138 100.41 386.832C100.152 387.887 100.102 388.986 100.264 390.062C100.426 391.137 100.796 392.167 101.351 393.087C101.926 393.995 102.74 394.707 103.695 395.136C104.649 395.566 105.702 395.694 106.725 395.505C110.179 394.688 113.283 393.397 116.766 394.067C124.265 395.512 131.788 396.963 139.052 399.397C147.341 402.175 155.367 406.249 164.031 407.104C164.601 407.226 165.194 407.13 165.701 406.831C166.143 406.392 166.417 405.8 166.474 405.164C167.366 400.771 168.259 396.378 169.151 391.985C170.23 387.116 171.052 382.188 171.613 377.223C171.918 374.019 172.004 370.796 172.091 367.577L172.781 341.956C173.105 338.18 172.625 334.376 171.377 330.818L167.407 317.516C165.142 309.925 159.945 303.194 158.095 295.48C156.924 290.597 156.059 285.358 152.919 281.553C148.442 276.128 140.696 275.284 133.917 276.217C130.854 276.638 127.765 277.365 125.116 279.033C122.052 280.961 119.796 283.998 117.612 286.965C115.813 289.41 113.981 291.376 112.14 293.787Z" fill="#6C63FF"/>
<path d="M127.97 369.148C128.529 371.677 129.702 374.008 130.42 376.491C131.623 380.652 131.521 385.134 132.722 389.295C133.226 391.042 133.956 392.719 134.317 394.505C135.161 398.667 133.929 402.973 132.4 406.913C130.87 410.854 129.008 414.74 128.511 418.963C128.161 421.937 128.664 425.296 130.848 427.226C133.115 429.231 136.411 429.095 139.364 428.828C140.424 428.797 141.471 428.568 142.455 428.153C144.713 427.031 145.664 424.225 146.192 421.662C147.962 413.071 147.456 404.166 146.942 395.393L145.597 372.45C145.339 368.033 145.061 363.525 143.765 359.284C143.293 357.741 142.471 354.623 141.128 353.638C139.799 352.663 136.002 352.619 134.356 352.538C126.632 352.157 126.719 363.474 127.97 369.148Z" fill="#FBBEBE"/>
<path d="M136.528 284.438C134.95 283.571 132.963 283.945 131.438 284.91C129.966 285.969 128.677 287.283 127.626 288.796C124.217 293.164 120.609 298.175 121.114 303.796C121.304 305.903 122.073 307.898 122.594 309.943C124.879 318.91 122.352 328.393 122.642 337.67C122.81 343.031 123.921 348.303 125.027 353.539C125.253 354.608 125.615 355.845 126.6 356.205C127.34 356.475 128.139 356.128 128.871 355.835C131.599 354.777 134.529 354.424 137.414 354.806C140.299 355.188 143.054 356.293 145.447 358.029C147.276 357.004 146.59 353.764 146.18 351.631C144.962 345.293 146.616 338.754 148.624 332.642C150.633 326.529 153.036 320.424 153.369 313.967C153.746 306.652 151.435 299.511 149.156 292.587C148.658 291.075 148.114 289.49 146.96 288.446C145.972 287.675 144.84 287.132 143.638 286.853C141.217 286.102 138.765 285.668 136.528 284.438Z" fill="#2F2E41"/>
</g>
<defs>
<clipPath id="clip0">
<rect width="719" height="573" fill="white"/>
</clipPath>
</defs>
</svg>
